<svg xmlns="http://www.w3.org/2000/svg" xmlns:xlink="http://www.w3.org/1999/xlink" contentStyleType="text/css" data-diagram-type="CLASS" height="824px" preserveAspectRatio="none" style="width:546px;height:824px;background:#FFFFFF;" version="1.1" viewBox="0 0 546 824" width="546px" zoomAndPan="magnify"><?plantuml 1.2026.3beta6?><defs/><g><g class="title" data-source-line="1"><text fill="#000000" font-family="sans-serif" font-size="14" font-weight="700" lengthAdjust="spacing" textLength="325.6504" x="106.756" y="22.9951">Modelo de Dominio (Diagrama de Clases)</text></g><!--class EmpresaCliente--><g class="entity" data-qualified-name="EmpresaCliente" data-source-line="6" id="ent0002"><rect fill="#F1F1F1" height="113.1875" rx="2.5" ry="2.5" style="stroke:#181818;stroke-width:0.5;" width="164.9268" x="325.52" y="44.2969"/><ellipse cx="350.4969" cy="60.2969" fill="#ADD1B2" rx="11" ry="11" style="stroke:#181818;stroke-width:1;"/><path d="M353.4657,65.9375 Q352.8875,66.2344 352.2469,66.375 Q351.6063,66.5313 350.9032,66.5313 Q348.4032,66.5313 347.075,64.8906 Q345.7625,63.2344 345.7625,60.1094 Q345.7625,56.9844 347.075,55.3281 Q348.4032,53.6719 350.9032,53.6719 Q351.6063,53.6719 352.2469,53.8281 Q352.9032,53.9844 353.4657,54.2813 L353.4657,57 Q352.8407,56.4219 352.2469,56.1563 Q351.6532,55.875 351.0282,55.875 Q349.6844,55.875 348.9969,56.9531 Q348.3094,58.0156 348.3094,60.1094 Q348.3094,62.2031 348.9969,63.2813 Q349.6844,64.3438 351.0282,64.3438 Q351.6532,64.3438 352.2469,64.0781 Q352.8407,63.7969 353.4657,63.2188 L353.4657,65.9375 Z " fill="#000000"/><text fill="#000000" font-family="sans-serif" font-size="14" lengthAdjust="spacing" textLength="110.7559" x="366.714" y="65.1436">EmpresaCliente</text><line style="stroke:#181818;stroke-width:0.5;" x1="326.52" x2="489.4468" y1="76.2969" y2="76.2969"/><text fill="#000000" font-family="sans-serif" font-size="14" lengthAdjust="spacing" textLength="67.7988" x="331.52" y="93.292">-String cif</text><text fill="#000000" font-family="sans-serif" font-size="14" lengthAdjust="spacing" textLength="131.9131" x="331.52" y="109.5889">-String razonSocial</text><text fill="#000000" font-family="sans-serif" font-size="14" lengthAdjust="spacing" textLength="150.1514" x="331.52" y="125.8857">-String direccionSede</text><text fill="#000000" font-family="sans-serif" font-size="14" lengthAdjust="spacing" textLength="152.9268" x="331.52" y="142.1826">-String emailContacto</text><line style="stroke:#181818;stroke-width:0.5;" x1="326.52" x2="489.4468" y1="149.4844" y2="149.4844"/></g><!--class ActivoIndustrial--><g class="entity" data-qualified-name="ActivoIndustrial" data-source-line="13" id="ent0003"><rect fill="#F1F1F1" height="145.7813" rx="2.5" ry="2.5" style="stroke:#181818;stroke-width:0.5;" width="169.5137" x="323.23" y="234.4769"/><ellipse cx="350.9878" cy="250.4769" fill="#ADD1B2" rx="11" ry="11" style="stroke:#181818;stroke-width:1;"/><path d="M353.9565,256.1175 Q353.3784,256.4144 352.7378,256.555 Q352.0971,256.7113 351.394,256.7113 Q348.894,256.7113 347.5659,255.0706 Q346.2534,253.4144 346.2534,250.2894 Q346.2534,247.1644 347.5659,245.5081 Q348.894,243.8519 351.394,243.8519 Q352.0971,243.8519 352.7378,244.0081 Q353.394,244.1644 353.9565,244.4613 L353.9565,247.18 Q353.3315,246.6019 352.7378,246.3363 Q352.144,246.055 351.519,246.055 Q350.1753,246.055 349.4878,247.1331 Q348.8003,248.1956 348.8003,250.2894 Q348.8003,252.3831 349.4878,253.4613 Q350.1753,254.5238 351.519,254.5238 Q352.144,254.5238 352.7378,254.2581 Q353.3315,253.9769 353.9565,253.3988 L353.9565,256.1175 Z " fill="#000000"/><text fill="#000000" font-family="sans-serif" font-size="14" lengthAdjust="spacing" textLength="109.1631" x="367.8228" y="255.3236">ActivoIndustrial</text><line style="stroke:#181818;stroke-width:0.5;" x1="324.23" x2="491.7437" y1="266.4769" y2="266.4769"/><text fill="#000000" font-family="sans-serif" font-size="14" lengthAdjust="spacing" textLength="114.3584" x="329.23" y="283.472">-String idInterno</text><text fill="#000000" font-family="sans-serif" font-size="14" lengthAdjust="spacing" textLength="118.4258" x="329.23" y="299.7689">-String numSerie</text><text fill="#000000" font-family="sans-serif" font-size="14" lengthAdjust="spacing" textLength="95.5322" x="329.23" y="316.0657">-String marca</text><text fill="#000000" font-family="sans-serif" font-size="14" lengthAdjust="spacing" textLength="103.4414" x="329.23" y="332.3626">-String modelo</text><text fill="#000000" font-family="sans-serif" font-size="14" lengthAdjust="spacing" textLength="120.0664" x="329.23" y="348.6595">-Enum tipoActivo</text><text fill="#000000" font-family="sans-serif" font-size="14" lengthAdjust="spacing" textLength="157.5137" x="329.23" y="364.9564">-Date fechaInstalacion</text><line style="stroke:#181818;stroke-width:0.5;" x1="324.23" x2="491.7437" y1="372.2581" y2="372.2581"/></g><!--class Inspeccion--><g class="entity" data-qualified-name="Inspeccion" data-source-line="22" id="ent0004"><rect fill="#F1F1F1" height="145.7813" rx="2.5" ry="2.5" style="stroke:#181818;stroke-width:0.5;" width="228.1318" x="131.92" y="457.2569"/><ellipse cx="204.4766" cy="473.2569" fill="#ADD1B2" rx="11" ry="11" style="stroke:#181818;stroke-width:1;"/><path d="M207.4454,478.8975 Q206.8673,479.1944 206.2266,479.335 Q205.586,479.4913 204.8829,479.4913 Q202.3829,479.4913 201.0548,477.8506 Q199.7423,476.1944 199.7423,473.0694 Q199.7423,469.9444 201.0548,468.2881 Q202.3829,466.6319 204.8829,466.6319 Q205.586,466.6319 206.2266,466.7881 Q206.8829,466.9444 207.4454,467.2413 L207.4454,469.96 Q206.8204,469.3819 206.2266,469.1163 Q205.6329,468.835 205.0079,468.835 Q203.6641,468.835 202.9766,469.9131 Q202.2891,470.9756 202.2891,473.0694 Q202.2891,475.1631 202.9766,476.2413 Q203.6641,477.3038 205.0079,477.3038 Q205.6329,477.3038 206.2266,477.0381 Q206.8204,476.7569 207.4454,476.1788 L207.4454,478.8975 Z " fill="#000000"/><text fill="#000000" font-family="sans-serif" font-size="14" lengthAdjust="spacing" textLength="74.5186" x="224.9766" y="478.1036">Inspeccion</text><line style="stroke:#181818;stroke-width:0.5;" x1="132.92" x2="359.0518" y1="489.2569" y2="489.2569"/><text fill="#000000" font-family="sans-serif" font-size="14" lengthAdjust="spacing" textLength="196" x="137.92" y="506.252">-DateTime fechaRealizacion</text><text fill="#000000" font-family="sans-serif" font-size="14" lengthAdjust="spacing" textLength="117.9473" x="137.92" y="522.5489">-String idTecnico</text><text fill="#000000" font-family="sans-serif" font-size="14" lengthAdjust="spacing" textLength="216.1318" x="137.92" y="538.8457">-JSON datosTecnicosRecogidos</text><text fill="#000000" font-family="sans-serif" font-size="14" lengthAdjust="spacing" textLength="114.6182" x="137.92" y="555.1426">-Boolean esApto</text><text fill="#000000" font-family="sans-serif" font-size="14" lengthAdjust="spacing" textLength="152.1953" x="137.92" y="571.4395">-String observaciones</text><line style="stroke:#181818;stroke-width:0.5;" x1="132.92" x2="359.0518" y1="578.7413" y2="578.7413"/><text fill="#000000" font-family="sans-serif" font-size="14" lengthAdjust="spacing" textLength="170.9873" x="137.92" y="595.7364">+validarConNormativa()</text></g><!--class Certificado--><g class="entity" data-qualified-name="Certificado" data-source-line="31" id="ent0005"><rect fill="#F1F1F1" height="129.4844" rx="2.5" ry="2.5" style="stroke:#181818;stroke-width:0.5;" width="219.9697" x="7" y="680.0469"/><ellipse cx="74.6997" cy="696.0469" fill="#ADD1B2" rx="11" ry="11" style="stroke:#181818;stroke-width:1;"/><path d="M77.6685,701.6875 Q77.0903,701.9844 76.4497,702.125 Q75.8091,702.2813 75.106,702.2813 Q72.606,702.2813 71.2778,700.6406 Q69.9653,698.9844 69.9653,695.8594 Q69.9653,692.7344 71.2778,691.0781 Q72.606,689.4219 75.106,689.4219 Q75.8091,689.4219 76.4497,689.5781 Q77.106,689.7344 77.6685,690.0313 L77.6685,692.75 Q77.0435,692.1719 76.4497,691.9063 Q75.856,691.625 75.231,691.625 Q73.8872,691.625 73.1997,692.7031 Q72.5122,693.7656 72.5122,695.8594 Q72.5122,697.9531 73.1997,699.0313 Q73.8872,700.0938 75.231,700.0938 Q75.856,700.0938 76.4497,699.8281 Q77.0435,699.5469 77.6685,698.9688 L77.6685,701.6875 Z " fill="#000000"/><text fill="#000000" font-family="sans-serif" font-size="14" lengthAdjust="spacing" textLength="76.0703" x="95.1997" y="700.8936">Certificado</text><line style="stroke:#181818;stroke-width:0.5;" x1="8" x2="225.9697" y1="712.0469" y2="712.0469"/><text fill="#000000" font-family="sans-serif" font-size="14" lengthAdjust="spacing" textLength="207.9697" x="13" y="729.042">-String codSeguroVerificacion</text><text fill="#000000" font-family="sans-serif" font-size="14" lengthAdjust="spacing" textLength="136.6504" x="13" y="745.3389">-Date fechaEmision</text><text fill="#000000" font-family="sans-serif" font-size="14" lengthAdjust="spacing" textLength="155.709" x="13" y="761.6357">-Date fechaCaducidad</text><text fill="#000000" font-family="sans-serif" font-size="14" lengthAdjust="spacing" textLength="150.8965" x="13" y="777.9326">-String urlDocumento</text><line style="stroke:#181818;stroke-width:0.5;" x1="8" x2="225.9697" y1="785.2344" y2="785.2344"/><text fill="#000000" font-family="sans-serif" font-size="14" lengthAdjust="spacing" textLength="105.0068" x="13" y="802.2295">+generarPDF()</text></g><!--class MotorReglas--><g class="entity" data-qualified-name="MotorReglas" data-source-line="39" id="ent0006"><rect fill="#F1F1F1" height="80.5938" rx="2.5" ry="2.5" style="stroke:#181818;stroke-width:0.5;" width="228.583" x="261.69" y="704.4869"/><ellipse cx="328.0088" cy="720.4869" fill="#ADD1B2" rx="11" ry="11" style="stroke:#181818;stroke-width:1;"/><path d="M330.9776,726.1275 Q330.3995,726.4244 329.7588,726.565 Q329.1182,726.7213 328.4151,726.7213 Q325.9151,726.7213 324.587,725.0806 Q323.2745,723.4244 323.2745,720.2994 Q323.2745,717.1744 324.587,715.5181 Q325.9151,713.8619 328.4151,713.8619 Q329.1182,713.8619 329.7588,714.0181 Q330.4151,714.1744 330.9776,714.4713 L330.9776,717.19 Q330.3526,716.6119 329.7588,716.3463 Q329.1651,716.065 328.5401,716.065 Q327.1963,716.065 326.5088,717.1431 Q325.8213,718.2056 325.8213,720.2994 Q325.8213,722.3931 326.5088,723.4713 Q327.1963,724.5338 328.5401,724.5338 Q329.1651,724.5338 329.7588,724.2681 Q330.3526,723.9869 330.9776,723.4088 L330.9776,726.1275 Z " fill="#000000"/><text fill="#000000" font-family="sans-serif" font-size="14" lengthAdjust="spacing" textLength="87.4453" x="348.5088" y="725.3336">MotorReglas</text><line style="stroke:#181818;stroke-width:0.5;" x1="262.69" x2="489.273" y1="736.4869" y2="736.4869"/><line style="stroke:#181818;stroke-width:0.5;" x1="262.69" x2="489.273" y1="744.4869" y2="744.4869"/><text fill="#000000" font-family="sans-serif" font-size="14" lengthAdjust="spacing" textLength="216.583" x="267.69" y="761.482">+compararRangos(tipo, datos)</text><text fill="#000000" font-family="sans-serif" font-size="14" lengthAdjust="spacing" textLength="184.3379" x="267.69" y="777.7789">+verificarLimitesLegales()</text></g><g class="entity" data-qualified-name="GMN11" data-source-line="50" id="ent0012"><path d="M394.8,494.8869 L394.8,565.4181 A0,0 0 0 0 394.8,565.4181 L531.1623,565.4181 A0,0 0 0 0 531.1623,565.4181 L531.1623,504.8869 L521.1623,494.8869 L458.35,494.8869 L425.99,380.6669 L450.35,494.8869 L394.8,494.8869 A0,0 0 0 0 394.8,494.8869" fill="#FEFFDD" style="stroke:#181818;stroke-width:0.5;"/><path d="M521.1623,494.8869 L521.1623,504.8869 L531.1623,504.8869 L521.1623,494.8869" fill="#FEFFDD" style="stroke:#181818;stroke-width:0.5;"/><text fill="#000000" font-family="sans-serif" font-size="13" lengthAdjust="spacing" textLength="115.3623" x="400.8" y="511.9538">Tipos soportados:</text><text fill="#000000" font-family="sans-serif" font-size="13" lengthAdjust="spacing" textLength="80.1836" x="400.8" y="527.0866">- Compresor</text><text fill="#000000" font-family="sans-serif" font-size="13" lengthAdjust="spacing" textLength="65.8569" x="400.8" y="542.2194">- Elevador</text><text fill="#000000" font-family="sans-serif" font-size="13" lengthAdjust="spacing" textLength="104.4063" x="400.8" y="557.3522">- Cabina Pintura</text></g><!--reverse link EmpresaCliente to ActivoIndustrial--><g class="link" data-entity-1="ent0002" data-entity-2="ent0003" data-link-type="composition" data-source-line="44" id="lnk7"><path codeLine="44" d="M407.98,169.7669 C407.98,193.2969 407.98,208.9869 407.98,234.0469" fill="none" id="EmpresaCliente-backto-ActivoIndustrial" style="stroke:#181818;stroke-width:1;"/><polygon fill="#181818" points="407.98,157.7669,403.98,163.7669,407.98,169.7669,411.98,163.7669,407.98,157.7669" style="stroke:#181818;stroke-width:1;"/><polygon fill="#000000" points="412.98,201.0433,415.9189,191.9982,410.0411,191.9982,412.98,201.0433" style="stroke:#000000;stroke-width:1;"/><text fill="#000000" font-family="sans-serif" font-size="13" lengthAdjust="spacing" textLength="55.8911" x="421.98" y="200.5438">gestiona</text><text fill="#000000" font-family="sans-serif" font-size="13" lengthAdjust="spacing" textLength="8.271" x="399.5086" y="177.6877">1</text><text fill="#000000" font-family="sans-serif" font-size="13" lengthAdjust="spacing" textLength="23.0356" x="383.885" y="223.4169">0..*</text></g><!--reverse link ActivoIndustrial to Inspeccion--><g class="link" data-entity-1="ent0003" data-entity-2="ent0004" data-link-type="aggregation" data-source-line="45" id="lnk8"><path codeLine="45" d="M347.8414,390.3421 C329.8514,414.8621 316.85,432.5669 298.87,457.0769" fill="none" id="ActivoIndustrial-backto-Inspeccion" style="stroke:#181818;stroke-width:1;"/><polygon fill="none" points="354.94,380.6669,348.1656,383.1383,347.8414,390.3421,354.6158,387.8707,354.94,380.6669" style="stroke:#181818;stroke-width:1;"/><polygon fill="#000000" points="334.0219,422.8544,341.7426,417.3008,337.0037,413.8233,334.0219,422.8544" style="stroke:#000000;stroke-width:1;"/><text fill="#000000" font-family="sans-serif" font-size="13" lengthAdjust="spacing" textLength="38.9746" x="345.98" y="423.3238">posee</text><text fill="#000000" font-family="sans-serif" font-size="13" lengthAdjust="spacing" textLength="8.271" x="341.5156" y="400.4413">1</text><text fill="#000000" font-family="sans-serif" font-size="13" lengthAdjust="spacing" textLength="23.0356" x="279.9455" y="446.2191">0..*</text></g><!--link Inspeccion to Certificado--><g class="link" data-entity-1="ent0004" data-entity-2="ent0005" data-link-type="association" data-source-line="46" id="lnk9"><path codeLine="46" d="M202.13,603.4369 C187.08,628.2369 170.36,655.7969 155.75,679.8869" fill="none" id="Inspeccion-Certificado" style="stroke:#181818;stroke-width:1;"/><polygon fill="#000000" points="184.3866,645.8881,191.5908,639.6792,186.5654,636.6305,184.3866,645.8881" style="stroke:#000000;stroke-width:1;"/><text fill="#000000" font-family="sans-serif" font-size="13" lengthAdjust="spacing" textLength="45.7983" x="195.98" y="646.1138">genera</text><text fill="#000000" font-family="sans-serif" font-size="13" lengthAdjust="spacing" textLength="8.271" x="189.5816" y="623.2103">1</text><text fill="#000000" font-family="sans-serif" font-size="13" lengthAdjust="spacing" textLength="24.8066" x="134.7215" y="669.042">0..1</text></g><!--link Inspeccion to MotorReglas--><g class="link" data-entity-1="ent0004" data-entity-2="ent0006" data-link-type="dependency" data-source-line="47" id="lnk10"><path codeLine="47" d="M290.18,603.4369 C310.79,637.1469 331.3913,670.8372 348.6613,699.0972" fill="none" id="Inspeccion-to-MotorReglas" style="stroke:#181818;stroke-width:1;stroke-dasharray:7,7;"/><polygon fill="#181818" points="351.79,704.2169,350.5101,694.4515,349.1827,699.9505,343.6838,698.6231,351.79,704.2169" style="stroke:#181818;stroke-width:1;"/><polygon fill="#000000" points="322.588,645.8792,320.3776,636.6291,315.3626,639.695,322.588,645.8792" style="stroke:#000000;stroke-width:1;"/><text fill="#000000" font-family="sans-serif" font-size="13" lengthAdjust="spacing" textLength="112.0425" x="328.98" y="646.1138">consulta criterios</text></g><?plantuml-src RL9DRzim3BtxLmWvfUqQTDSS2gHE1cHeko89TcSanYKcYGObvz1X_trqx2vsCf-iHrBlGyoKFPeNTkZPE3HB3XI9pNH9K0a4QC7IGy9qKnJf5yKQ53PMeRJ8MMZVP5nRZblwGFCmQ0aSsRuB1pG7y0cBuZHaLg4MJ51wmfZH_2wCVlTcgtV5obWwZ0613xsSBO4V5nm9MajQH8VZ4WOWNtBCO3CNVpwP5pRJaTVHDKdxm5zoarkh8eayXcCJjYXqmH50B5n0fnXxRALZ9bFD7MkFBa4j7z2-mpgc31vQ0sU52jQTgN_QseaTXNvgW-3fevkwqBv36yb-4dtV_dWr3ZAd7ayRj5oHuzHtF35xX6WmBUfyOPdt2ULuei6k_yuSbTc1QAolB07K54nlpj9Bb4m7ik3uwatPRR5gX7zgZ6tBGFuva5MWz3-y1DTOPNRZInlnIxPDq2NYNc654GNaRVbjAEo5Cyi6AptqmkvKKMYNL3OGAqxJzfc-T6dTVBhjfSep1SgOdh42Zwcx-6A59rydvlR-tamUPhFRoVMQpLLPokeDp6DnLMsd-JmzM86vgJaXwj00RDlxRlqRfZxl0nZtpsQFemZcQZwcncSmLjIP42UTA2AhaptdpC7muSg4nhBJb999NBDavKlpedsEaazXi9nEAuz7hNM74lQadjyevaQWmEXCo_8N?></g></svg>