<svg xmlns="http://www.w3.org/2000/svg" xmlns:xlink="http://www.w3.org/1999/xlink" contentStyleType="text/css" data-diagram-type="STATE" height="885px" preserveAspectRatio="none" style="width:544px;height:885px;background:#FFFFFF;" version="1.1" viewBox="0 0 544 885" width="544px" zoomAndPan="magnify"><?plantuml 1.2026.3beta6?><defs/><g><g class="start_entity" data-qualified-name=".start." data-source-line="3" id="ent0002"><ellipse cx="330.43" cy="16" fill="#222222" rx="10" ry="10" style="stroke:#222222;stroke-width:1;"/></g><g class="entity" data-qualified-name="Borrador" id="ent0003"><rect fill="#F1F1F1" height="50" rx="12.5" ry="12.5" style="stroke:#181818;stroke-width:0.5;" width="81.4688" x="289.7" y="103"/><line style="stroke:#181818;stroke-width:0.5;" x1="289.7" x2="371.1688" y1="129.2969" y2="129.2969"/><text fill="#000000" font-family="sans-serif" font-size="14" lengthAdjust="spacing" textLength="61.4688" x="299.7" y="120.9951">Borrador</text></g><g class="entity" data-qualified-name="Validando" id="ent0005"><rect fill="#F1F1F1" height="50" rx="12.5" ry="12.5" style="stroke:#181818;stroke-width:0.5;" width="89.7266" x="207.57" y="230"/><line style="stroke:#181818;stroke-width:0.5;" x1="207.57" x2="297.2966" y1="256.2969" y2="256.2969"/><text fill="#000000" font-family="sans-serif" font-size="14" lengthAdjust="spacing" textLength="69.7266" x="217.57" y="247.9951">Validando</text></g><g class="entity" data-qualified-name="Apto" id="ent0007"><rect fill="#F1F1F1" height="50" rx="12.5" ry="12.5" style="stroke:#181818;stroke-width:0.5;" width="52.5186" x="63.17" y="357"/><line style="stroke:#181818;stroke-width:0.5;" x1="63.17" x2="115.6886" y1="383.2969" y2="383.2969"/><text fill="#000000" font-family="sans-serif" font-size="14" lengthAdjust="spacing" textLength="32.5186" x="73.17" y="374.9951">Apto</text></g><g class="entity" data-qualified-name="NoApto" id="ent0009"><rect fill="#F1F1F1" height="50" rx="12.5" ry="12.5" style="stroke:#181818;stroke-width:0.5;" width="71.5566" x="294.65" y="357"/><line style="stroke:#181818;stroke-width:0.5;" x1="294.65" x2="366.2066" y1="383.2969" y2="383.2969"/><text fill="#000000" font-family="sans-serif" font-size="14" lengthAdjust="spacing" textLength="51.5566" x="304.65" y="374.9951">NoApto</text></g><g class="entity" data-qualified-name="Emitido" id="ent0011"><rect fill="#F1F1F1" height="50" rx="12.5" ry="12.5" style="stroke:#181818;stroke-width:0.5;" width="73.2041" x="52.83" y="484"/><line style="stroke:#181818;stroke-width:0.5;" x1="52.83" x2="126.0341" y1="510.2969" y2="510.2969"/><text fill="#000000" font-family="sans-serif" font-size="14" lengthAdjust="spacing" textLength="53.2041" x="62.83" y="501.9951">Emitido</text></g><g class="entity" data-qualified-name="ProximoVencimiento" id="ent0013"><rect fill="#F1F1F1" height="50" rx="12.5" ry="12.5" style="stroke:#181818;stroke-width:0.5;" width="164.8604" x="7" y="611"/><line style="stroke:#181818;stroke-width:0.5;" x1="7" x2="171.8604" y1="637.2969" y2="637.2969"/><text fill="#000000" font-family="sans-serif" font-size="14" lengthAdjust="spacing" textLength="144.8604" x="17" y="628.9951">ProximoVencimiento</text></g><g class="entity" data-qualified-name="Caducado" id="ent0015"><rect fill="#F1F1F1" height="50" rx="12.5" ry="12.5" style="stroke:#181818;stroke-width:0.5;" width="89.8428" x="44.51" y="738"/><line style="stroke:#181818;stroke-width:0.5;" x1="44.51" x2="134.3528" y1="764.2969" y2="764.2969"/><text fill="#000000" font-family="sans-serif" font-size="14" lengthAdjust="spacing" textLength="69.8428" x="54.51" y="755.9951">Caducado</text></g><g class="end_entity" data-qualified-name=".end." data-source-line="10" id="ent0017"><ellipse cx="89.43" cy="860" fill="none" rx="11" ry="11" style="stroke:#222222;stroke-width:1;"/><ellipse cx="89.43" cy="860" fill="#222222" rx="6" ry="6" style="stroke:#222222;stroke-width:1;"/></g><!--link *start* to Borrador--><g class="link" data-entity-1="ent0002" data-entity-2="ent0003" data-link-type="dependency" data-source-line="3" id="lnk4"><path d="M330.43,26.38 C330.43,43.11 330.43,72.59 330.43,96.63" fill="none" id="*start*-to-Borrador" style="stroke:#181818;stroke-width:1;"/><polygon fill="#181818" points="330.43,102.63,334.43,93.63,330.43,97.63,326.43,93.63,330.43,102.63" style="stroke:#181818;stroke-width:1;"/><text fill="#000000" font-family="sans-serif" font-size="13" lengthAdjust="spacing" textLength="107.7261" x="331.43" y="69.0669">Inicio Inspecci&#243;n</text></g><!--link Borrador to Validando--><g class="link" data-entity-1="ent0003" data-entity-2="ent0005" data-link-type="dependency" data-source-line="4" id="lnk6"><path d="M307.94,153.24 C300.26,162.2 291.96,172.69 285.43,183 C276.12,197.7 270.2003,209.921 264.2703,223.991" fill="none" id="Borrador-to-Validando" style="stroke:#181818;stroke-width:1;"/><polygon fill="#181818" points="261.94,229.52,269.1214,222.78,263.8819,224.9125,261.7494,219.673,261.94,229.52" style="stroke:#181818;stroke-width:1;"/><text fill="#000000" font-family="sans-serif" font-size="13" lengthAdjust="spacing" textLength="96.2686" x="286.43" y="196.0669">Env&#237;o de datos</text></g><!--link Validando to Apto--><g class="link" data-entity-1="ent0005" data-entity-2="ent0007" data-link-type="dependency" data-source-line="5" id="lnk8"><path d="M207.13,263.31 C176.87,270.41 138.21,284.09 113.43,310 C101.38,322.6 96.534,335.574 93.544,350.694" fill="none" id="Validando-to-Apto" style="stroke:#181818;stroke-width:1;"/><polygon fill="#181818" points="92.38,356.58,98.05,348.527,93.35,351.675,90.2019,346.975,92.38,356.58" style="stroke:#181818;stroke-width:1;"/><text fill="#000000" font-family="sans-serif" font-size="13" lengthAdjust="spacing" textLength="121.9956" x="114.43" y="323.0669">Cumple Normativa</text></g><!--link Validando to NoApto--><g class="link" data-entity-1="ent0005" data-entity-2="ent0009" data-link-type="dependency" data-source-line="6" id="lnk10"><path d="M245.47,280.39 C242.75,294.77 241.86,312.86 249.43,327 C259,344.88 272.0758,355.0936 288.9158,363.8436" fill="none" id="Validando-to-NoApto" style="stroke:#181818;stroke-width:1;"/><polygon fill="#181818" points="294.24,366.61,288.098,358.9109,289.8032,364.3046,284.4094,366.0098,294.24,366.61" style="stroke:#181818;stroke-width:1;"/><text fill="#000000" font-family="sans-serif" font-size="13" lengthAdjust="spacing" textLength="132.1392" x="250.43" y="323.0669">Incumple Normativa</text></g><!--link Apto to Emitido--><g class="link" data-entity-1="ent0007" data-entity-2="ent0011" data-link-type="dependency" data-source-line="7" id="lnk12"><path d="M89.43,407.4 C89.43,429.42 89.43,455.66 89.43,477.66" fill="none" id="Apto-to-Emitido" style="stroke:#181818;stroke-width:1;"/><polygon fill="#181818" points="89.43,483.66,93.43,474.66,89.43,478.66,85.43,474.66,89.43,483.66" style="stroke:#181818;stroke-width:1;"/><text fill="#000000" font-family="sans-serif" font-size="13" lengthAdjust="spacing" textLength="204.4517" x="90.43" y="450.0669">Generar Certificado (PDF+CSV)</text></g><!--link Emitido to ProximoVencimiento--><g class="link" data-entity-1="ent0011" data-entity-2="ent0013" data-link-type="dependency" data-source-line="8" id="lnk14"><path d="M89.43,534.4 C89.43,556.42 89.43,582.66 89.43,604.66" fill="none" id="Emitido-to-ProximoVencimiento" style="stroke:#181818;stroke-width:1;"/><polygon fill="#181818" points="89.43,610.66,93.43,601.66,89.43,605.66,85.43,601.66,89.43,610.66" style="stroke:#181818;stroke-width:1;"/><text fill="#000000" font-family="sans-serif" font-size="13" lengthAdjust="spacing" textLength="59.9092" x="90.43" y="577.0669">T-30 d&#237;as</text></g><!--link ProximoVencimiento to Caducado--><g class="link" data-entity-1="ent0013" data-entity-2="ent0015" data-link-type="dependency" data-source-line="9" id="lnk16"><path d="M89.43,661.4 C89.43,683.42 89.43,709.66 89.43,731.66" fill="none" id="ProximoVencimiento-to-Caducado" style="stroke:#181818;stroke-width:1;"/><polygon fill="#181818" points="89.43,737.66,93.43,728.66,89.43,732.66,85.43,728.66,89.43,737.66" style="stroke:#181818;stroke-width:1;"/><text fill="#000000" font-family="sans-serif" font-size="13" lengthAdjust="spacing" textLength="100.0454" x="90.43" y="704.0669">Fecha expirada</text></g><!--link Caducado to *end*--><g class="link" data-entity-1="ent0015" data-entity-2="ent0017" data-link-type="dependency" data-source-line="10" id="lnk18"><path d="M89.43,788.46 C89.43,808.04 89.43,828.49 89.43,842.8" fill="none" id="Caducado-to-*end*" style="stroke:#181818;stroke-width:1;"/><polygon fill="#181818" points="89.43,848.8,93.43,839.8,89.43,843.8,85.43,839.8,89.43,848.8" style="stroke:#181818;stroke-width:1;"/></g><!--link NoApto to Borrador--><g class="link" data-entity-1="ent0009" data-entity-2="ent0003" data-link-type="dependency" data-source-line="11" id="lnk19"><path d="M365.13,356.55 C374.1,348.29 382.58,338.27 387.43,327 C412.72,268.21 412.72,241.79 387.43,183 C382.58,171.73 378.5137,165.7744 369.5437,157.5144" fill="none" id="NoApto-to-Borrador" style="stroke:#181818;stroke-width:1;"/><polygon fill="#181818" points="365.13,153.45,369.041,162.489,368.8081,156.837,374.4602,156.6041,365.13,153.45" style="stroke:#181818;stroke-width:1;"/><text fill="#000000" font-family="sans-serif" font-size="13" lengthAdjust="spacing" textLength="121.1577" x="407.43" y="259.5669">Correcci&#243;n t&#233;cnica</text></g><?plantuml-src RP0xQWCn48PxdMBAF5W8f7CHI1Gxk366X6r2Ya6QuC6MHingZQ-KmbMEi1UBj6mSM5ADuFlceR_RSqoe62185BTJ2GHPUpBc_UO3ckO1daGLlIWiO1tPiPJI9NAEX-zeBhIgBHxOO_HIt6Ky3cS1J-0nIsV-M3KVKwwIxKCw46n40sO-uipQoEIjevkR8wdICd3cSUKBHL9KiAIPFzcLk-1g-xowjQ_jjVdrQizMvSH1MegE0rCSbxmrztVWXpDsvXzUsopwVfowW1Mv7GAT4fVlexcGgfNap7JwB41RdbDoa8SlL_B47m00?></g></svg>