<svg xmlns="http://www.w3.org/2000/svg" xmlns:xlink="http://www.w3.org/1999/xlink" contentStyleType="text/css" data-diagram-type="DESCRIPTION" height="697px" preserveAspectRatio="none" style="width:1271px;height:697px;background:#FFFFFF;" version="1.1" viewBox="0 0 1271 697" width="1271px" zoomAndPan="magnify"><?plantuml 1.2026.3beta6?><defs/><g><g class="header" data-source-line="1"><text fill="#888888" font-family="sans-serif" font-size="10" lengthAdjust="spacing" textLength="117.9443" x="1146.2157" y="9.2822">Proyecto DuoCert - TFG</text></g><g class="title" data-source-line="2"><text fill="#000000" font-family="sans-serif" font-size="14" font-weight="700" lengthAdjust="spacing" textLength="210.1299" x="527.0151" y="35.6357">Diagrama de Casos de Uso</text></g><!--cluster Sistema DuoCert--><g class="cluster" data-qualified-name="Sistema DuoCert" data-source-line="11" id="ent0004"><rect fill="none" height="539" rx="2.5" ry="2.5" style="stroke:#181818;stroke-width:1;" width="1074.43" x="182.73" y="56.9375"/><text fill="#000000" font-family="sans-serif" font-size="14" font-weight="700" lengthAdjust="spacing" textLength="132.8838" x="653.5031" y="71.9326">Sistema DuoCert</text></g><!--entity UC1--><g class="entity" data-qualified-name="Sistema DuoCert.UC1" data-source-line="12" id="ent0005"><ellipse cx="330.366" cy="555.9327" fill="#F1F1F1" rx="105.576" ry="23.5152" style="stroke:#181818;stroke-width:0.5;"/><text fill="#000000" font-family="sans-serif" font-size="14" lengthAdjust="spacing" textLength="188.2754" x="236.2283" y="560.5811">Gestionar Clientes y Sedes</text></g><!--entity UC2--><g class="entity" data-qualified-name="Sistema DuoCert.UC2" data-source-line="13" id="ent0006"><ellipse cx="330.3685" cy="201.9352" fill="#F1F1F1" rx="120.5885" ry="26.5177" style="stroke:#181818;stroke-width:0.5;"/><text fill="#000000" font-family="sans-serif" font-size="14" lengthAdjust="spacing" textLength="220.6094" x="220.0638" y="206.5836">Gestionar Inventario de Activos</text></g><!--entity UC3--><g class="entity" data-qualified-name="Sistema DuoCert.UC3" data-source-line="14" id="ent0007"><ellipse cx="330.3671" cy="377.9349" fill="#F1F1F1" rx="131.6371" ry="28.7274" style="stroke:#181818;stroke-width:0.5;"/><text fill="#000000" font-family="sans-serif" font-size="14" lengthAdjust="spacing" textLength="244.0293" x="208.3524" y="382.5834">Configurar Par&#225;metros Normativos</text></g><!--entity UC4--><g class="entity" data-qualified-name="Sistema DuoCert.UC4" data-source-line="16" id="ent0008"><ellipse cx="330.3721" cy="115.9419" fill="#F1F1F1" rx="108.0721" ry="24.0144" style="stroke:#181818;stroke-width:0.5;"/><text fill="#000000" font-family="sans-serif" font-size="14" lengthAdjust="spacing" textLength="193.7031" x="233.5206" y="120.5904">Realizar Inspecci&#243;n T&#233;cnica</text></g><!--entity UC5--><g class="entity" data-qualified-name="Sistema DuoCert.UC5" data-source-line="17" id="ent0009"><ellipse cx="693.8856" cy="117.9346" fill="#F1F1F1" rx="106.8856" ry="23.7771" style="stroke:#181818;stroke-width:0.5;"/><text fill="#000000" font-family="sans-serif" font-size="14" lengthAdjust="spacing" textLength="191.126" x="598.3226" y="122.5831">Validar Par&#225;metros Cr&#237;ticos</text></g><!--entity UC6--><g class="entity" data-qualified-name="Sistema DuoCert.UC6" data-source-line="18" id="ent0010"><ellipse cx="1121.9717" cy="117.9358" fill="#F1F1F1" rx="119.1917" ry="26.2383" style="stroke:#181818;stroke-width:0.5;"/><text fill="#000000" font-family="sans-serif" font-size="14" lengthAdjust="spacing" textLength="217.6289" x="1013.1572" y="122.5843">Generar Certificado Oficial PDF</text></g><!--entity UC7--><g class="entity" data-qualified-name="Sistema DuoCert.UC7" data-source-line="20" id="ent0011"><ellipse cx="330.3749" cy="288.9385" fill="#F1F1F1" rx="114.0549" ry="25.211" style="stroke:#181818;stroke-width:0.5;"/><text fill="#000000" font-family="sans-serif" font-size="14" lengthAdjust="spacing" textLength="206.623" x="227.0634" y="293.5869">Consultar Historial de Activos</text></g><!--entity UC8--><g class="entity" data-qualified-name="Sistema DuoCert.UC8" data-source-line="21" id="ent0012"><ellipse cx="330.3724" cy="469.934" fill="#F1F1F1" rx="127.6824" ry="27.9365" style="stroke:#181818;stroke-width:0.5;"/><text fill="#000000" font-family="sans-serif" font-size="14" lengthAdjust="spacing" textLength="235.6758" x="212.5345" y="474.5824">Gestionar Alertas de Vencimiento</text></g><!--entity T--><g class="entity" data-qualified-name="T" data-source-line="8" id="ent0002"><ellipse cx="70.8662" cy="93.7975" fill="#F1F1F1" rx="16" ry="16" style="stroke:#181818;stroke-width:0.5;"/><path d="M70.8662,113.7975 C74.8662,113.7975 77.8662,113.7975 81.8662,109.7975 C89.8662,109.7975 97.8662,117.7975 97.8662,125.7975 L97.8662,129.7975 C97.8662,133.7975 93.8662,137.7975 89.8662,137.7975 L51.8662,137.7975 C47.8662,137.7975 43.8662,133.7975 43.8662,129.7975 L43.8662,125.7975 C43.8662,117.7975 51.8662,109.7975 59.8662,109.7975 C63.8662,113.7975 66.8662,113.7975 70.8662,113.7975" fill="#F1F1F1" style="stroke:#181818;stroke-width:0.5;"/><text fill="#000000" font-family="sans-serif" font-size="14" lengthAdjust="spacing" textLength="129.7324" x="6" y="151.2926">T&#233;cnico de Campo</text></g><!--entity A--><g class="entity" data-qualified-name="A" data-source-line="9" id="ent0003"><ellipse cx="70.87" cy="355.7975" fill="#F1F1F1" rx="16" ry="16" style="stroke:#181818;stroke-width:0.5;"/><path d="M70.87,375.7975 C74.87,375.7975 77.87,375.7975 81.87,371.7975 C89.87,371.7975 97.87,379.7975 97.87,387.7975 L97.87,391.7975 C97.87,395.7975 93.87,399.7975 89.87,399.7975 L51.87,399.7975 C47.87,399.7975 43.87,395.7975 43.87,391.7975 L43.87,387.7975 C43.87,379.7975 51.87,371.7975 59.87,371.7975 C63.87,375.7975 66.87,375.7975 70.87,375.7975" fill="#F1F1F1" style="stroke:#181818;stroke-width:0.5;"/><text fill="#000000" font-family="sans-serif" font-size="14" lengthAdjust="spacing" textLength="99.0801" x="21.33" y="413.2926">Administrador</text></g><g class="entity" data-qualified-name="GMN23" data-source-line="38" id="ent0024"><path d="M1015.91,611.6775 L1015.91,682.2088 L1228.0316,682.2088 L1228.0316,621.6775 L1218.0316,611.6775 L1015.91,611.6775" fill="#FEFFDD" style="stroke:#181818;stroke-width:0.5;"/><path d="M1218.0316,611.6775 L1218.0316,621.6775 L1228.0316,621.6775 L1218.0316,611.6775" fill="#FEFFDD" style="stroke:#181818;stroke-width:1;"/><text fill="#000000" font-family="sans-serif" font-size="13" lengthAdjust="spacing" textLength="185.2373" x="1021.91" y="628.7444">El motor de reglas compara:</text><text fill="#000000" font-family="sans-serif" font-size="13" lengthAdjust="spacing" textLength="156.9902" x="1021.91" y="643.8772">- Presi&#243;n (Compresores)</text><text fill="#000000" font-family="sans-serif" font-size="13" lengthAdjust="spacing" textLength="191.1216" x="1021.91" y="659.01">- Carga/Frenado (Elevadores)</text><text fill="#000000" font-family="sans-serif" font-size="13" lengthAdjust="spacing" textLength="163.8457" x="1021.91" y="674.1428">- Estanqueidad (Cabinas)</text></g><!--link T to UC4--><g class="link" data-entity-1="ent0002" data-entity-2="ent0008" data-link-type="dependency" data-source-line="24" id="lnk13"><path d="M136.18,115.9375 C162.1,115.9375 186.72,115.9375 215.84,115.9375" fill="none" id="T-to-UC4" style="stroke:#181818;stroke-width:1;"/><polygon fill="#181818" points="221.84,115.9375,212.84,111.9375,216.84,115.9375,212.84,119.9375,221.84,115.9375" style="stroke:#181818;stroke-width:1;"/></g><!--link T to UC7--><g class="link" data-entity-1="ent0002" data-entity-2="ent0011" data-link-type="dependency" data-source-line="25" id="lnk14"><path d="M93.51,155.0475 C111.59,184.2175 139.97,222.8475 174.73,245.9375 C193.65,258.5075 210.4351,265.7643 232.3751,272.0943" fill="none" id="T-to-UC7" style="stroke:#181818;stroke-width:1;"/><polygon fill="#181818" points="238.14,273.7575,230.6015,267.4194,233.3359,272.3715,228.3839,275.1059,238.14,273.7575" style="stroke:#181818;stroke-width:1;"/></g><!--link T to UC6--><g class="link" data-entity-1="ent0002" data-entity-2="ent0010" data-link-type="dependency" data-source-line="26" id="lnk15"><path d="M135.99,85.3475 C148.57,80.6175 161.86,76.4675 174.73,73.9375 C201.05,68.7775 781.89,75.9775 800.78,76.9375 C877.45,80.8375 896.65,82.9975 972.78,92.9375 C990.89,95.3075 1004.2491,97.2762 1022.7191,100.3062" fill="none" id="T-to-UC6" style="stroke:#181818;stroke-width:1;"/><polygon fill="#181818" points="1028.64,101.2775,1020.4063,95.8733,1023.706,100.4681,1019.1112,103.7678,1028.64,101.2775" style="stroke:#181818;stroke-width:1;"/></g><!--link UC4 to UC5--><g class="link" data-entity-1="ent0008" data-entity-2="ent0009" data-link-type="dependency" data-source-line="28" id="lnk16"><path d="M438.86,116.5375 C485.59,116.7975 534.1801,117.064 580.7501,117.324" fill="none" id="UC4-to-UC5" style="stroke:#181818;stroke-width:1;stroke-dasharray:7,7;"/><polygon fill="#181818" points="586.75,117.3575,577.7725,113.3073,581.7501,117.3296,577.7278,121.3072,586.75,117.3575" style="stroke:#181818;stroke-width:1;"/><text fill="#000000" font-family="sans-serif" font-size="13" lengthAdjust="spacing" textLength="63.0068" x="493.01" y="113.0044">&#171;include&#187;</text></g><!--link UC5 to UC6--><g class="link" data-entity-1="ent0009" data-entity-2="ent0010" data-link-type="dependency" data-source-line="29" id="lnk17"><path d="M801.04,117.9375 C862.28,117.9375 933.44,117.9375 996.64,117.9375" fill="none" id="UC5-to-UC6" style="stroke:#181818;stroke-width:1;stroke-dasharray:7,7;"/><polygon fill="#181818" points="1002.64,117.9375,993.64,113.9375,997.64,117.9375,993.64,121.9375,1002.64,117.9375" style="stroke:#181818;stroke-width:1;"/><text fill="#000000" font-family="sans-serif" font-size="13" lengthAdjust="spacing" textLength="140.8989" x="831.78" y="114.0044">&#171;include (si es Apto)&#187;</text></g><!--link A to UC1--><g class="link" data-entity-1="ent0003" data-entity-2="ent0005" data-link-type="dependency" data-source-line="31" id="lnk18"><path d="M91.67,417.0675 C109.36,448.1175 138.1,490.2575 174.73,514.9375 C194.31,528.1375 212.1416,535.5452 234.9616,541.6152" fill="none" id="A-to-UC1" style="stroke:#181818;stroke-width:1;"/><polygon fill="#181818" points="240.76,543.1575,233.0907,536.9784,235.928,541.8722,231.0342,544.7096,240.76,543.1575" style="stroke:#181818;stroke-width:1;"/></g><!--link A to UC2--><g class="link" data-entity-1="ent0003" data-entity-2="ent0006" data-link-type="dependency" data-source-line="32" id="lnk19"><path d="M93.04,338.8975 C111.05,309.2475 139.56,269.6475 174.73,245.9375 C192.79,233.7775 208.4502,226.6853 229.5002,220.2753" fill="none" id="A-to-UC2" style="stroke:#181818;stroke-width:1;"/><polygon fill="#181818" points="235.24,218.5275,225.4651,217.3227,230.4569,219.984,227.7956,224.9758,235.24,218.5275" style="stroke:#181818;stroke-width:1;"/></g><!--link A to UC3--><g class="link" data-entity-1="ent0003" data-entity-2="ent0007" data-link-type="dependency" data-source-line="33" id="lnk20"><path d="M120.6,377.9375 C142.91,377.9375 164.53,377.9375 192.29,377.9375" fill="none" id="A-to-UC3" style="stroke:#181818;stroke-width:1;"/><polygon fill="#181818" points="198.29,377.9375,189.29,373.9375,193.29,377.9375,189.29,381.9375,198.29,377.9375" style="stroke:#181818;stroke-width:1;"/></g><!--link A to UC7--><g class="link" data-entity-1="ent0003" data-entity-2="ent0011" data-link-type="dependency" data-source-line="34" id="lnk21"><path d="M120.7,354.3175 C137.59,346.6175 156.79,338.4075 174.73,331.9375 C199.77,322.9175 221.8502,316.2217 246.9702,309.3917" fill="none" id="A-to-UC7" style="stroke:#181818;stroke-width:1;"/><polygon fill="#181818" points="252.76,307.8175,243.0258,306.319,247.9352,309.1293,245.1248,314.0387,252.76,307.8175" style="stroke:#181818;stroke-width:1;"/></g><!--link A to UC8--><g class="link" data-entity-1="ent0003" data-entity-2="ent0012" data-link-type="dependency" data-source-line="35" id="lnk22"><path d="M120.77,401.3875 C137.66,409.0675 156.85,417.3175 174.73,423.9375 C198.5,432.7475 219.0347,439.3815 243.0947,446.4715" fill="none" id="A-to-UC8" style="stroke:#181818;stroke-width:1;"/><polygon fill="#181818" points="248.85,448.1675,241.3477,441.7867,244.0539,446.7542,239.0864,449.4604,248.85,448.1675" style="stroke:#181818;stroke-width:1;"/></g><!--link UC5 to GMN23--><g class="link" data-entity-1="ent0009" data-entity-2="ent0024" data-link-type="association" data-source-line="38" id="lnk25"><path d="M704.35,142.0975 C735.5,218.8075 842.18,459.8575 1002.78,595.9375 C1009.43,601.5775 1016.79,606.6775 1024.5,611.2775" fill="none" id="UC5-GMN23" style="stroke:#181818;stroke-width:1;stroke-dasharray:7,7;"/></g><?plantuml-src PLFBRjim4BppAnO-EGUdIDBOGH0O46GxxQKrQYVthRXMYF2XafGBj-Z7zDX3Jlq4_rYNUi5m1GXQSeQpkyFL2w4a3sll3bH41ulQvUGZJ62xUXHHHKsmK5XwD0YI8CVWGWgUWXD2qou2d_AgV8aWbMSDvQm8hyfMo6UWmk8LIzh40mib66sfwOI0dDMtC7wdu0m9qUp1Q7lyKrXLk3QlgTm8CC2sXpDfb5KXUfJEDr0cn902HXl6YAlkMXh1Jm7yZ1yff2BHGwuLsKW13h0XIU4YYJpbL-UyZtRFFFIgAINZ7lUk9r-tvDpPdIfhp-mr-kDlGz6pKP-SDtXAlsdexPalX5hzQFH3HKMXZdyjT4rZnt_VKf-PAS-qStzyYsnFBttRbsqfbP5wLZjMaWu-yrUXXlLYrP6d9tLmxQ7Mt1zyOCkSJyp_-foTcv9fJe3DB3oJBPH9NhgEVIT-2R65oMJUzD17io6Q2i40N5wcnItSmyE3ieMk9Std8ksqoFGKWN5GmBULLPo7QIBhnAw6w7g8RePeDaHtGbWNgHjNj-jCMsemBesKJ2DQQkwWS2QDvpsZ4_uvA3HtmqwPYXUEtui6oj6N-6xboIQRnqjD-pIDFRmCF8pVQkAxatmQlogB396La0hv1m00?></g></svg>