<svg xmlns="http://www.w3.org/2000/svg" xmlns:xlink="http://www.w3.org/1999/xlink" contentStyleType="text/css" data-diagram-type="CLASS" height="501px" preserveAspectRatio="none" style="width:678px;height:501px;background:#FFFFFF;" version="1.1" viewBox="0 0 678 501" width="678px" zoomAndPan="magnify"><?plantuml 1.2026.3beta6?><defs/><g><g class="title" data-source-line="1"><text fill="#000000" font-family="sans-serif" font-size="14" font-weight="700" lengthAdjust="spacing" textLength="289.3721" x="190.814" y="22.9951">3.3.1. Diagrama de Clases de Dise&#241;o</text></g><!--cluster Vistas--><g class="cluster" data-qualified-name="Vistas" data-source-line="6" id="ent0002"><path d="M8.5,218.1869 L57.9395,218.1869 A3.75,3.75 0 0 1 60.4395,220.6869 L67.4395,240.4838 L429.5,240.4838 A2.5,2.5 0 0 1 432,242.9838 L432,322.9569 A2.5,2.5 0 0 1 429.5,325.4569 L8.5,325.4569 A2.5,2.5 0 0 1 6,322.9569 L6,220.6869 A2.5,2.5 0 0 1 8.5,218.1869" fill="none" style="stroke:#000000;stroke-width:1.5;"/><line style="stroke:#000000;stroke-width:1.5;" x1="6" x2="67.4395" y1="240.4838" y2="240.4838"/><text fill="#000000" font-family="sans-serif" font-size="14" font-weight="700" lengthAdjust="spacing" textLength="48.4395" x="10" y="233.182">Vistas</text></g><!--cluster Controladores--><g class="cluster" data-qualified-name="Controladores" data-source-line="12" id="ent0006"><path d="M102.5,43.2969 L215.1924,43.2969 A3.75,3.75 0 0 1 217.6924,45.7969 L224.6924,65.5938 L460.5,65.5938 A2.5,2.5 0 0 1 463,68.0938 L463,166.6869 A2.5,2.5 0 0 1 460.5,169.1869 L102.5,169.1869 A2.5,2.5 0 0 1 100,166.6869 L100,45.7969 A2.5,2.5 0 0 1 102.5,43.2969" fill="none" style="stroke:#000000;stroke-width:1.5;"/><line style="stroke:#000000;stroke-width:1.5;" x1="100" x2="224.6924" y1="65.5938" y2="65.5938"/><text fill="#000000" font-family="sans-serif" font-size="14" font-weight="700" lengthAdjust="spacing" textLength="111.6924" x="104" y="58.292">Controladores</text></g><!--cluster Modelos--><g class="cluster" data-qualified-name="Modelos" data-source-line="23" id="ent0009"><path d="M489.5,43.2969 L556.3164,43.2969 A3.75,3.75 0 0 1 558.8164,45.7969 L565.8164,65.5938 L660.5,65.5938 A2.5,2.5 0 0 1 663,68.0938 L663,484.1569 A2.5,2.5 0 0 1 660.5,486.6569 L489.5,486.6569 A2.5,2.5 0 0 1 487,484.1569 L487,45.7969 A2.5,2.5 0 0 1 489.5,43.2969" fill="none" style="stroke:#000000;stroke-width:1.5;"/><line style="stroke:#000000;stroke-width:1.5;" x1="487" x2="565.8164" y1="65.5938" y2="65.5938"/><text fill="#000000" font-family="sans-serif" font-size="14" font-weight="700" lengthAdjust="spacing" textLength="65.8164" x="491" y="58.292">Modelos</text></g><!--class TecnicoMainView--><g class="entity" data-qualified-name="Vistas.TecnicoMainView" data-source-line="7" id="ent0003"><rect fill="#F1F1F1" height="42.2969" rx="2.5" ry="2.5" style="stroke:#181818;stroke-width:0.5;" width="126.8389" x="21.58" y="260.1769"/><text fill="#000000" font-family="sans-serif" font-size="14" lengthAdjust="spacing" textLength="120.8389" x="24.58" y="278.172">TecnicoMainView</text><line style="stroke:#181818;stroke-width:0.5;" x1="22.58" x2="147.4189" y1="286.4738" y2="286.4738"/><line style="stroke:#181818;stroke-width:0.5;" x1="22.58" x2="147.4189" y1="294.4738" y2="294.4738"/></g><!--class InspeccionView--><g class="entity" data-qualified-name="Vistas.InspeccionView" data-source-line="8" id="ent0004"><rect fill="#F1F1F1" height="56.2656" rx="2.5" ry="2.5" style="stroke:#181818;stroke-width:0.5;" width="114.0488" x="182.98" y="253.1869"/><text fill="#000000" font-family="sans-serif" font-size="12" font-style="italic" lengthAdjust="spacing" textLength="67.7051" x="206.1519" y="269.3255">&#171;Primitiva&#187;</text><text fill="#000000" font-family="sans-serif" font-size="14" lengthAdjust="spacing" textLength="108.0488" x="185.98" y="285.1507">InspeccionView</text><line style="stroke:#181818;stroke-width:0.5;" x1="183.98" x2="296.0288" y1="293.4525" y2="293.4525"/><line style="stroke:#181818;stroke-width:0.5;" x1="183.98" x2="296.0288" y1="301.4525" y2="301.4525"/></g><!--class ActivoView--><g class="entity" data-qualified-name="Vistas.ActivoView" data-source-line="9" id="ent0005"><rect fill="#F1F1F1" height="56.2656" rx="2.5" ry="2.5" style="stroke:#181818;stroke-width:0.5;" width="83.0342" x="332.48" y="253.1869"/><text fill="#000000" font-family="sans-serif" font-size="12" font-style="italic" lengthAdjust="spacing" textLength="67.7051" x="340.1446" y="269.3255">&#171;Primitiva&#187;</text><text fill="#000000" font-family="sans-serif" font-size="14" lengthAdjust="spacing" textLength="77.0342" x="335.48" y="285.1507">ActivoView</text><line style="stroke:#181818;stroke-width:0.5;" x1="333.48" x2="414.5142" y1="293.4525" y2="293.4525"/><line style="stroke:#181818;stroke-width:0.5;" x1="333.48" x2="414.5142" y1="301.4525" y2="301.4525"/></g><!--class InspeccionController--><g class="entity" data-qualified-name="Controladores.InspeccionController" data-source-line="13" id="ent0007"><rect fill="#F1F1F1" height="74.8906" rx="2.5" ry="2.5" style="stroke:#181818;stroke-width:0.5;" width="149.6914" x="116.15" y="78.2969"/><text fill="#000000" font-family="sans-serif" font-size="14" lengthAdjust="spacing" textLength="143.6914" x="119.15" y="96.292">InspeccionController</text><line style="stroke:#181818;stroke-width:0.5;" x1="117.15" x2="264.8414" y1="104.5938" y2="104.5938"/><line style="stroke:#181818;stroke-width:0.5;" x1="117.15" x2="264.8414" y1="112.5938" y2="112.5938"/><g data-visibility-modifier="PUBLIC_METHOD"><ellipse cx="127.15" cy="126.2422" fill="#A6A6A6" rx="3" ry="3" style="stroke:#545454;stroke-width:1;"/></g><text fill="#000000" font-family="sans-serif" font-size="14" lengthAdjust="spacing" textLength="109.4365" x="136.15" y="129.5889">iniciarCaptura()</text><g data-visibility-modifier="PUBLIC_METHOD"><ellipse cx="127.15" cy="142.5391" fill="#A6A6A6" rx="3" ry="3" style="stroke:#545454;stroke-width:1;"/></g><text fill="#000000" font-family="sans-serif" font-size="14" lengthAdjust="spacing" textLength="111.0635" x="136.15" y="145.8857">validarValores()</text></g><!--class InventarioController--><g class="entity" data-qualified-name="Controladores.InventarioController" data-source-line="17" id="ent0008"><rect fill="#F1F1F1" height="74.8906" rx="2.5" ry="2.5" style="stroke:#181818;stroke-width:0.5;" width="146.2256" x="300.89" y="78.2969"/><text fill="#000000" font-family="sans-serif" font-size="14" lengthAdjust="spacing" textLength="140.2256" x="303.89" y="96.292">InventarioController</text><line style="stroke:#181818;stroke-width:0.5;" x1="301.89" x2="446.1156" y1="104.5938" y2="104.5938"/><line style="stroke:#181818;stroke-width:0.5;" x1="301.89" x2="446.1156" y1="112.5938" y2="112.5938"/><g data-visibility-modifier="PUBLIC_METHOD"><ellipse cx="311.89" cy="126.2422" fill="#A6A6A6" rx="3" ry="3" style="stroke:#545454;stroke-width:1;"/></g><text fill="#000000" font-family="sans-serif" font-size="14" lengthAdjust="spacing" textLength="90.8291" x="320.89" y="129.5889">crearActivo()</text><g data-visibility-modifier="PUBLIC_METHOD"><ellipse cx="311.89" cy="142.5391" fill="#A6A6A6" rx="3" ry="3" style="stroke:#545454;stroke-width:1;"/></g><text fill="#000000" font-family="sans-serif" font-size="14" lengthAdjust="spacing" textLength="117.7285" x="320.89" y="145.8857">listarPorCliente()</text></g><!--class Cliente--><g class="entity" data-qualified-name="Modelos.Cliente" data-source-line="24" id="ent0010"><rect fill="#F1F1F1" height="74.8906" rx="2.5" ry="2.5" style="stroke:#181818;stroke-width:0.5;" width="131.2803" x="507.36" y="78.2969"/><text fill="#000000" font-family="sans-serif" font-size="14" lengthAdjust="spacing" textLength="49.1436" x="548.4284" y="96.292">Cliente</text><line style="stroke:#181818;stroke-width:0.5;" x1="508.36" x2="637.6403" y1="104.5938" y2="104.5938"/><g data-visibility-modifier="PRIVATE_FIELD"><rect fill="none" height="6" style="stroke:#595959;stroke-width:1;" width="6" x="515.36" y="115.2422"/></g><text fill="#000000" font-family="sans-serif" font-size="14" lengthAdjust="spacing" textLength="105.2803" x="527.36" y="121.5889">nombre: String</text><g data-visibility-modifier="PRIVATE_FIELD"><rect fill="none" height="6" style="stroke:#595959;stroke-width:1;" width="6" x="515.36" y="131.5391"/></g><text fill="#000000" font-family="sans-serif" font-size="14" lengthAdjust="spacing" textLength="72.9053" x="527.36" y="137.8857">CIF: String</text><line style="stroke:#181818;stroke-width:0.5;" x1="508.36" x2="637.6403" y1="145.1875" y2="145.1875"/></g><!--class Activo--><g class="entity" data-qualified-name="Modelos.Activo" data-source-line="28" id="ent0011"><rect fill="#F1F1F1" height="74.8906" rx="2.5" ry="2.5" style="stroke:#181818;stroke-width:0.5;" width="144.0908" x="502.95" y="243.8769"/><text fill="#000000" font-family="sans-serif" font-size="14" lengthAdjust="spacing" textLength="43.5039" x="553.2435" y="261.872">Activo</text><line style="stroke:#181818;stroke-width:0.5;" x1="503.95" x2="646.0408" y1="270.1738" y2="270.1738"/><g data-visibility-modifier="PRIVATE_FIELD"><rect fill="none" height="6" style="stroke:#595959;stroke-width:1;" width="6" x="510.95" y="280.8222"/></g><text fill="#000000" font-family="sans-serif" font-size="14" lengthAdjust="spacing" textLength="118.0908" x="522.95" y="287.1689">numSerie: String</text><g data-visibility-modifier="PRIVATE_FIELD"><rect fill="none" height="6" style="stroke:#595959;stroke-width:1;" width="6" x="510.95" y="297.1191"/></g><text fill="#000000" font-family="sans-serif" font-size="14" lengthAdjust="spacing" textLength="95.1973" x="522.95" y="303.4657">marca: String</text><line style="stroke:#181818;stroke-width:0.5;" x1="503.95" x2="646.0408" y1="310.7675" y2="310.7675"/></g><!--class Inspeccion--><g class="entity" data-qualified-name="Modelos.Inspeccion" data-source-line="32" id="ent0012"><rect fill="#F1F1F1" height="74.8906" rx="2.5" ry="2.5" style="stroke:#181818;stroke-width:0.5;" width="140.2832" x="502.86" y="395.7669"/><text fill="#000000" font-family="sans-serif" font-size="14" lengthAdjust="spacing" textLength="74.5186" x="535.7423" y="413.762">Inspeccion</text><line style="stroke:#181818;stroke-width:0.5;" x1="503.86" x2="642.1432" y1="422.0638" y2="422.0638"/><g data-visibility-modifier="PRIVATE_FIELD"><rect fill="none" height="6" style="stroke:#595959;stroke-width:1;" width="6" x="510.86" y="432.7122"/></g><text fill="#000000" font-family="sans-serif" font-size="14" lengthAdjust="spacing" textLength="81.3203" x="522.86" y="439.0589">fecha: Date</text><g data-visibility-modifier="PRIVATE_FIELD"><rect fill="none" height="6" style="stroke:#595959;stroke-width:1;" width="6" x="510.86" y="449.0091"/></g><text fill="#000000" font-family="sans-serif" font-size="14" lengthAdjust="spacing" textLength="114.2832" x="522.86" y="455.3557">esApto: Boolean</text><line style="stroke:#181818;stroke-width:0.5;" x1="503.86" x2="642.1432" y1="462.6575" y2="462.6575"/></g><!--link TecnicoMainView to InspeccionController--><g class="link" data-entity-1="ent0003" data-entity-2="ent0007" data-link-type="dependency" data-source-line="39" id="lnk13"><path codeLine="39" d="M98.36,259.6969 C115.62,233.0669 142.7073,191.2722 163.9473,158.4922" fill="none" id="TecnicoMainView-to-InspeccionController" style="stroke:#181818;stroke-width:1;"/><polygon fill="#181818" points="167.21,153.4569,158.9591,158.8348,164.4911,157.653,165.6729,163.185,167.21,153.4569" style="stroke:#181818;stroke-width:1;"/><text fill="#000000" font-family="sans-serif" font-size="13" lengthAdjust="spacing" textLength="22.9785" x="146" y="198.2538">usa</text></g><!--link InspeccionController to InspeccionView--><g class="link" data-entity-1="ent0007" data-entity-2="ent0004" data-link-type="dependency" data-source-line="40" id="lnk14"><path codeLine="40" d="M202,153.4569 C211.03,183.5969 221.8886,219.8691 230.0586,247.1491" fill="none" id="InspeccionController-to-InspeccionView" style="stroke:#181818;stroke-width:1;"/><polygon fill="#181818" points="231.78,252.8969,233.0298,243.1276,230.3455,248.1071,225.3661,245.4228,231.78,252.8969" style="stroke:#181818;stroke-width:1;"/><text fill="#000000" font-family="sans-serif" font-size="13" lengthAdjust="spacing" textLength="55.8911" x="217" y="198.2538">gestiona</text></g><!--link InventarioController to ActivoView--><g class="link" data-entity-1="ent0008" data-entity-2="ent0005" data-link-type="dependency" data-source-line="41" id="lnk15"><path codeLine="41" d="M374,153.4569 C374,183.5969 374,219.6169 374,246.8969" fill="none" id="InventarioController-to-ActivoView" style="stroke:#181818;stroke-width:1;"/><polygon fill="#181818" points="374,252.8969,378,243.8969,374,247.8969,370,243.8969,374,252.8969" style="stroke:#181818;stroke-width:1;"/><text fill="#000000" font-family="sans-serif" font-size="13" lengthAdjust="spacing" textLength="55.8911" x="375" y="198.2538">gestiona</text></g><!--reverse link Cliente to Activo--><g class="link" data-entity-1="ent0010" data-entity-2="ent0011" data-link-type="composition" data-source-line="43" id="lnk16"><path codeLine="43" d="M573.5975,165.456 C573.9275,192.296 574.22,216.5669 574.55,243.4469" fill="none" id="Cliente-backto-Activo" style="stroke:#181818;stroke-width:1;"/><polygon fill="#181818" points="573.45,153.4569,569.5241,159.5056,573.5975,165.456,577.5235,159.4072,573.45,153.4569" style="stroke:#181818;stroke-width:1;"/><text fill="#000000" font-family="sans-serif" font-size="13" lengthAdjust="spacing" textLength="72.7314" x="575" y="198.2538">agregaci&#243;n</text><text fill="#000000" font-family="sans-serif" font-size="13" lengthAdjust="spacing" textLength="8.271" x="564.8631" y="173.3065">1</text><text fill="#000000" font-family="sans-serif" font-size="13" lengthAdjust="spacing" textLength="23.0356" x="549.4999" y="232.7263">0..*</text></g><!--reverse link Activo to Inspeccion--><g class="link" data-entity-1="ent0011" data-entity-2="ent0012" data-link-type="composition" data-source-line="44" id="lnk17"><path codeLine="44" d="M574.3499,330.9858 C574.0399,354.2158 573.8,372.1469 573.49,395.4069" fill="none" id="Activo-backto-Inspeccion" style="stroke:#181818;stroke-width:1;"/><polygon fill="#181818" points="574.51,318.9869,570.4303,324.933,574.3499,330.9858,578.4296,325.0397,574.51,318.9869" style="stroke:#181818;stroke-width:1;"/><text fill="#000000" font-family="sans-serif" font-size="13" lengthAdjust="spacing" textLength="72.7314" x="575" y="361.8338">agregaci&#243;n</text><text fill="#000000" font-family="sans-serif" font-size="13" lengthAdjust="spacing" textLength="8.271" x="565.7624" y="338.8279">1</text><text fill="#000000" font-family="sans-serif" font-size="13" lengthAdjust="spacing" textLength="23.0356" x="548.6004" y="384.6983">0..*</text></g><?plantuml-src TLF1Rjim3BthAmXVkdMmiQ8temZGEXZGGu5YBN9dPSuXAei6fMJOXdpKi4_eZqtkqbdEF9rayhr7yb6E71t1PNLPNLImPkmKUuIMe74OA8otDGTw-Id6X6Vs0oO0zEB5RbLwWgWxCbjEECjg7Hape7t6Zg3OS8WO2lXX81sR10CyalLivGxPRvY-PfbR7mQobkKr0LTNzyezHzxZQfN1hcqAoGBaa5Lkn4SLXwqedJGmbJc27EaHC9uFdDfZr0Q7k5DyztxAxD5nYxf1DweUCuUPz9vyH6LPbhPAg7_wptNTQ9FUYpQE4v_-AkSJtKbBJavcEHAo6gMN_acfXeUexBiftjn-cWKF_rWwKzdr3wIyeDEZMlolqcHkhlQ5x3PnrXXf2bAu7gBKS2FY2FqqyXby9eUZHdf-t-1HyJi-yMXzQqvU3vJbQdcXDUm2ciNKdFCgKqD78QQlaRAmmv6IlRiCRjvMK5mKS5wMK7oiglFYpT8QqWz5NPhcvPStn-09DFDi1lyD?></g></svg>