<svg xmlns="http://www.w3.org/2000/svg" xmlns:xlink="http://www.w3.org/1999/xlink" contentStyleType="text/css" data-diagram-type="STATE" height="1177px" preserveAspectRatio="none" style="width:899px;height:1177px;background:#FFFFFF;" version="1.1" viewBox="0 0 899 1177" width="899px" zoomAndPan="magnify"><?plantuml 1.2026.3beta6?><defs/><g><g class="title" data-source-line="1"><text fill="#000000" font-family="sans-serif" font-size="14" font-weight="700" lengthAdjust="spacing" textLength="314.7539" x="288.7661" y="22.9951">Ciclo de Vida de la Certificaci&#243;n T&#233;cnica</text></g><!--cluster En_Proceso--><g class="cluster" data-qualified-name="En_Proceso" data-source-line="5" id="ent0002"><path d="M80.5,44.2969 L537.5,44.2969 A12.5,12.5 0 0 1 550,56.7969 L550,65.5938 L68,65.5938 L68,56.7969 A12.5,12.5 0 0 1 80.5,44.2969" fill="#F1F1F1"/><rect fill="none" height="712.36" rx="12.5" ry="12.5" style="stroke:#181818;stroke-width:0.5;" width="482" x="68" y="44.2969"/><line style="stroke:#181818;stroke-width:0.5;" x1="68" x2="550" y1="65.5938" y2="65.5938"/><text fill="#000000" font-family="sans-serif" font-size="14" lengthAdjust="spacing" textLength="79.6523" x="269.1738" y="61.292">En_Proceso</text></g><!--cluster Validacion_Normativa--><g class="cluster" data-qualified-name="En_Proceso.Validacion_Normativa" data-source-line="9" id="ent0003"><path d="M120.5,289.2969 L497.5,289.2969 A12.5,12.5 0 0 1 510,301.7969 L510,310.5938 L108,310.5938 L108,301.7969 A12.5,12.5 0 0 1 120.5,289.2969" fill="#F1F1F1"/><rect fill="none" height="325" rx="12.5" ry="12.5" style="stroke:#181818;stroke-width:0.5;" width="402" x="108" y="289.2969"/><line style="stroke:#181818;stroke-width:0.5;" x1="108" x2="510" y1="310.5938" y2="310.5938"/><text fill="#000000" font-family="sans-serif" font-size="14" lengthAdjust="spacing" textLength="152.6807" x="232.6597" y="306.292">Validacion_Normativa</text></g><!--cluster Certificado_Emitido--><g class="cluster" data-qualified-name="Certificado_Emitido" data-source-line="19" id="ent0004"><path d="M602.5,695.2969 L863.5,695.2969 A12.5,12.5 0 0 1 876,707.7969 L876,716.5938 L590,716.5938 L590,707.7969 A12.5,12.5 0 0 1 602.5,695.2969" fill="#F1F1F1"/><rect fill="none" height="468" rx="12.5" ry="12.5" style="stroke:#181818;stroke-width:0.5;" width="286" x="590" y="695.2969"/><line style="stroke:#181818;stroke-width:0.5;" x1="590" x2="876" y1="716.5938" y2="716.5938"/><text fill="#000000" font-family="sans-serif" font-size="14" lengthAdjust="spacing" textLength="136.2744" x="664.8628" y="712.292">Certificado_Emitido</text></g><g class="start_entity" data-qualified-name="En_Proceso..start.En_Proceso" data-source-line="6" id="ent0004"><ellipse cx="377" cy="97.2969" fill="#222222" rx="10" ry="10" style="stroke:#222222;stroke-width:1;"/></g><g class="entity" data-qualified-name="En_Proceso.Recogida_Datos" id="ent0005"><rect fill="#F1F1F1" height="50" rx="12.5" ry="12.5" style="stroke:#181818;stroke-width:0.5;" width="132.5537" x="310.72" y="168.2969"/><line style="stroke:#181818;stroke-width:0.5;" x1="310.72" x2="443.2737" y1="194.5938" y2="194.5938"/><text fill="#000000" font-family="sans-serif" font-size="14" lengthAdjust="spacing" textLength="112.5537" x="320.72" y="186.292">Recogida_Datos</text></g><g class="start_entity" data-qualified-name="En_Proceso.Validacion_Normativa..start.Validacion_Normativa" data-source-line="10" id="ent0008"><ellipse cx="283" cy="342.2969" fill="#222222" rx="10" ry="10" style="stroke:#222222;stroke-width:1;"/></g><g class="entity" data-qualified-name="En_Proceso.Validacion_Normativa.Analizando_Rangos" id="ent0009"><rect fill="#F1F1F1" height="50" rx="12.5" ry="12.5" style="stroke:#181818;stroke-width:0.5;" width="155.9873" x="205.01" y="413.2969"/><line style="stroke:#181818;stroke-width:0.5;" x1="205.01" x2="360.9973" y1="439.5938" y2="439.5938"/><text fill="#000000" font-family="sans-serif" font-size="14" lengthAdjust="spacing" textLength="135.9873" x="215.01" y="431.292">Analizando_Rangos</text></g><g class="entity" data-qualified-name="En_Proceso.Validacion_Normativa.Fuera_de_Rango" id="ent0011"><rect fill="#F1F1F1" height="50" rx="12.5" ry="12.5" style="stroke:#181818;stroke-width:0.5;" width="136.0059" x="141" y="540.2969"/><line style="stroke:#181818;stroke-width:0.5;" x1="141" x2="277.0059" y1="566.5938" y2="566.5938"/><text fill="#000000" font-family="sans-serif" font-size="14" lengthAdjust="spacing" textLength="116.0059" x="151" y="558.292">Fuera_de_Rango</text></g><g class="entity" data-qualified-name="En_Proceso.Validacion_Normativa.Dentro_de_Rango" id="ent0013"><rect fill="#F1F1F1" height="50" rx="12.5" ry="12.5" style="stroke:#181818;stroke-width:0.5;" width="144.209" x="322.9" y="540.2969"/><line style="stroke:#181818;stroke-width:0.5;" x1="322.9" x2="467.109" y1="566.5938" y2="566.5938"/><text fill="#000000" font-family="sans-serif" font-size="14" lengthAdjust="spacing" textLength="124.209" x="332.9" y="558.292">Dentro_de_Rango</text></g><g class="start_entity" data-qualified-name="Certificado_Emitido..start.Certificado_Emitido" data-source-line="20" id="ent0017"><ellipse cx="708" cy="748.2969" fill="#222222" rx="10" ry="10" style="stroke:#222222;stroke-width:1;"/></g><g class="entity" data-qualified-name="Certificado_Emitido.Vigente" id="ent0018"><rect fill="#F1F1F1" height="50" rx="12.5" ry="12.5" style="stroke:#181818;stroke-width:0.5;" width="73.9424" x="671.03" y="835.2969"/><line style="stroke:#181818;stroke-width:0.5;" x1="671.03" x2="744.9724" y1="861.5938" y2="861.5938"/><text fill="#000000" font-family="sans-serif" font-size="14" lengthAdjust="spacing" textLength="53.9424" x="681.03" y="853.292">Vigente</text></g><g class="entity" data-qualified-name="Certificado_Emitido.Proximo_Vencimiento" id="ent0020"><rect fill="#F1F1F1" height="50" rx="12.5" ry="12.5" style="stroke:#181818;stroke-width:0.5;" width="171.8604" x="622.07" y="962.2969"/><line style="stroke:#181818;stroke-width:0.5;" x1="622.07" x2="793.9304" y1="988.5938" y2="988.5938"/><text fill="#000000" font-family="sans-serif" font-size="14" lengthAdjust="spacing" textLength="151.8604" x="632.07" y="980.292">Proximo_Vencimiento</text></g><g class="entity" data-qualified-name="Certificado_Emitido.Caducado" id="ent0022"><rect fill="#F1F1F1" height="50" rx="12.5" ry="12.5" style="stroke:#181818;stroke-width:0.5;" width="89.8428" x="622.08" y="1089.2969"/><line style="stroke:#181818;stroke-width:0.5;" x1="622.08" x2="711.9228" y1="1115.5938" y2="1115.5938"/><text fill="#000000" font-family="sans-serif" font-size="14" lengthAdjust="spacing" textLength="69.8428" x="632.08" y="1107.292">Caducado</text></g><g class="start_entity" data-qualified-name=".start." data-source-line="3" id="ent0002"><ellipse cx="16" cy="565.2969" fill="#222222" rx="10" ry="10" style="stroke:#222222;stroke-width:1;"/></g><g class="end_entity" data-qualified-name=".end." data-source-line="26" id="ent0025"><ellipse cx="486" cy="860.2969" fill="none" rx="11" ry="11" style="stroke:#222222;stroke-width:1;"/><ellipse cx="486" cy="860.2969" fill="#222222" rx="6" ry="6" style="stroke:#222222;stroke-width:1;"/></g><!--link *start* to En_Proceso--><g class="link" data-entity-1="ent0002" data-entity-2="ent0002" data-link-type="dependency" data-source-line="3" id="lnk3"><path d="M15.8,575.6669 C15.87,595.6469 18.78,642.9769 43,671.2969 C49.8138,679.2656 57.6155,686.4241 66.0588,692.8509 C66.5866,693.2526 62.3016,690.0717 62.8343,690.4677" fill="none" id="*start*-to-En_Proceso" style="stroke:#181818;stroke-width:1;"/><polygon fill="#181818" points="67.6494,694.0474,62.8132,685.4677,63.6368,691.0643,58.0402,691.8879,67.6494,694.0474" style="stroke:#181818;stroke-width:1;"/><text fill="#000000" font-family="sans-serif" font-size="13" lengthAdjust="spacing" textLength="161.4653" x="44" y="667.3638">T&#233;cnico inicia inspecci&#243;n</text></g><!--link *start*En_Proceso to Recogida_Datos--><g class="link" data-entity-1="ent0004" data-entity-2="ent0005" data-link-type="dependency" data-source-line="6" id="lnk6"><path d="M377,107.6569 C377,121.5869 377,142.2469 377,161.9469" fill="none" id="*start*En_Proceso-to-Recogida_Datos" style="stroke:#181818;stroke-width:1;"/><polygon fill="#181818" points="377,167.9469,381,158.9469,377,162.9469,373,158.9469,377,167.9469" style="stroke:#181818;stroke-width:1;"/></g><!--link Recogida_Datos to Validacion_Normativa--><g class="link" data-entity-1="ent0005" data-entity-2="ent0003" data-link-type="dependency" data-source-line="7" id="lnk7"><path d="M432.56,218.7369 C455.33,231.6369 479.66,249.7469 494,273.2969 C495.9163,276.4444 497.4858,279.8267 498.7645,283.3409 C499.4038,285.098 499.9704,286.888 500.4713,288.6981 C500.5026,288.8112 498.9598,283.1345 498.9906,283.2478" fill="none" id="Recogida_Datos-to-Validacion_Normativa" style="stroke:#181818;stroke-width:1;"/><polygon fill="#181818" points="500.5644,289.0377,502.0636,279.3036,499.2529,284.2128,494.3438,281.4021,500.5644,289.0377" style="stroke:#181818;stroke-width:1;"/><text fill="#000000" font-family="sans-serif" font-size="13" lengthAdjust="spacing" textLength="147.6782" x="488" y="261.3638">Finaliza toma de datos</text></g><!--link *start*Validacion_Normativa to Analizando_Rangos--><g class="link" data-entity-1="ent0008" data-entity-2="ent0009" data-link-type="dependency" data-source-line="10" id="lnk10"><path d="M283,352.6569 C283,366.5869 283,387.2469 283,406.9469" fill="none" id="*start*Validacion_Normativa-to-Analizando_Rangos" style="stroke:#181818;stroke-width:1;"/><polygon fill="#181818" points="283,412.9469,287,403.9469,283,407.9469,279,403.9469,283,412.9469" style="stroke:#181818;stroke-width:1;"/></g><!--link Analizando_Rangos to Fuera_de_Rango--><g class="link" data-entity-1="ent0009" data-entity-2="ent0011" data-link-type="dependency" data-source-line="11" id="lnk12"><path d="M204.62,459.5869 C188.57,467.4569 173.65,478.3269 164,493.2969 C154.04,508.7569 160.5865,521.9154 174.0665,535.6454" fill="none" id="Analizando_Rangos-to-Fuera_de_Rango" style="stroke:#181818;stroke-width:1;"/><polygon fill="#181818" points="178.27,539.9269,174.8191,530.7024,174.7671,536.359,169.1105,536.307,178.27,539.9269" style="stroke:#181818;stroke-width:1;"/><text fill="#000000" font-family="sans-serif" font-size="13" lengthAdjust="spacing" textLength="147.71" x="165" y="506.3638">Valor cr&#237;tico detectado</text></g><!--link Analizando_Rangos to Dentro_de_Rango--><g class="link" data-entity-1="ent0009" data-entity-2="ent0013" data-link-type="dependency" data-source-line="12" id="lnk14"><path d="M304.86,463.6969 C324.6,485.7169 349.4763,513.488 369.1863,535.488" fill="none" id="Analizando_Rangos-to-Dentro_de_Rango" style="stroke:#181818;stroke-width:1;"/><polygon fill="#181818" points="373.19,539.9569,370.1637,530.5845,369.8536,536.2328,364.2053,535.9227,373.19,539.9569" style="stroke:#181818;stroke-width:1;"/><text fill="#000000" font-family="sans-serif" font-size="13" lengthAdjust="spacing" textLength="120.5103" x="346" y="506.3638">Cumple normativa</text></g><!--link Fuera_de_Rango to En_Proceso--><g class="link" data-entity-1="ent0011" data-entity-2="ent0002" data-link-type="dependency" data-source-line="16" id="lnk15"><path d="M210.35,590.7069 C213.04,639.3369 218.4892,737.966 218.6692,741.226" fill="none" id="Fuera_de_Rango-to-En_Proceso" style="stroke:#181818;stroke-width:1;"/><polygon fill="#181818" points="219,747.2169,222.4977,738.01,218.7243,742.2245,214.5099,738.4511,219,747.2169" style="stroke:#181818;stroke-width:1;"/><text fill="#000000" font-family="sans-serif" font-size="13" lengthAdjust="spacing" textLength="212.0308" x="215" y="667.3638">Requiere Reparaci&#243;n / Reintento</text></g><!--link Dentro_de_Rango to Certificado_Emitido--><g class="link" data-entity-1="ent0013" data-entity-2="ent0004" data-link-type="dependency" data-source-line="17" id="lnk16"><path d="M440.84,590.7569 C475.92,611.0969 523.92,642.5769 558,679.2969 C569.555,691.7469 579.3,708.0894 586.2775,721.6331 C587.1497,723.3261 587.9786,724.9753 588.7625,726.5678 C589.1544,727.364 586.9309,722.7406 587.3,723.5068" fill="none" id="Dentro_de_Rango-to-Certificado_Emitido" style="stroke:#181818;stroke-width:1;"/><polygon fill="#181818" points="589.9041,728.9122,589.6015,719.068,587.734,724.4077,582.3943,722.5402,589.9041,728.9122" style="stroke:#181818;stroke-width:1;"/><text fill="#000000" font-family="sans-serif" font-size="13" lengthAdjust="spacing" textLength="182.7998" x="547" y="667.3638">Generaci&#243;n Autom&#225;tica PDF</text></g><!--link *start*Certificado_Emitido to Vigente--><g class="link" data-entity-1="ent0017" data-entity-2="ent0018" data-link-type="dependency" data-source-line="20" id="lnk19"><path d="M708,758.6769 C708,775.4069 708,804.8869 708,828.9269" fill="none" id="*start*Certificado_Emitido-to-Vigente" style="stroke:#181818;stroke-width:1;"/><polygon fill="#181818" points="708,834.9269,712,825.9269,708,829.9269,704,825.9269,708,834.9269" style="stroke:#181818;stroke-width:1;"/></g><!--link Vigente to Proximo_Vencimiento--><g class="link" data-entity-1="ent0018" data-entity-2="ent0020" data-link-type="dependency" data-source-line="21" id="lnk21"><path d="M708,885.6969 C708,907.7169 708,933.9569 708,955.9569" fill="none" id="Vigente-to-Proximo_Vencimiento" style="stroke:#181818;stroke-width:1;"/><polygon fill="#181818" points="708,961.9569,712,952.9569,708,956.9569,704,952.9569,708,961.9569" style="stroke:#181818;stroke-width:1;"/><text fill="#000000" font-family="sans-serif" font-size="13" lengthAdjust="spacing" textLength="113.0962" x="709" y="928.3638">T-30 d&#237;as (Alerta)</text></g><!--link Proximo_Vencimiento to Caducado--><g class="link" data-entity-1="ent0020" data-entity-2="ent0022" data-link-type="dependency" data-source-line="22" id="lnk23"><path d="M700,1012.6969 C692.77,1034.7169 684.0709,1061.256 676.8509,1083.256" fill="none" id="Proximo_Vencimiento-to-Caducado" style="stroke:#181818;stroke-width:1;"/><polygon fill="#181818" points="674.98,1088.9569,681.5869,1081.6529,676.5391,1084.2062,673.9858,1079.1583,674.98,1088.9569" style="stroke:#181818;stroke-width:1;"/><text fill="#000000" font-family="sans-serif" font-size="13" lengthAdjust="spacing" textLength="193.2861" x="690" y="1055.3638">Fecha vencimiento alcanzada</text></g><!--link Caducado to En_Proceso--><g class="link" data-entity-1="ent0022" data-entity-2="ent0002" data-link-type="dependency" data-source-line="25" id="lnk24"><path d="M637.01,1088.9269 C587.305,1048.5419 484.2725,964.8269 392.9413,890.6206 C347.2756,853.5175 304.5353,818.7916 272.8489,793.0477 C257.0057,780.1757 243.926,769.5493 234.6258,761.9939 C232.3008,760.1051 234.869,762.1913 233.0323,760.6993" fill="none" id="Caducado-to-En_Proceso" style="stroke:#181818;stroke-width:1;"/><polygon fill="#181818" points="228.3752,756.9162,232.8387,765.6955,232.2561,760.0687,237.8829,759.4861,228.3752,756.9162" style="stroke:#181818;stroke-width:1;"/><text fill="#000000" font-family="sans-serif" font-size="13" lengthAdjust="spacing" textLength="156.0317" x="444" y="928.3638">Nueva Inspecci&#243;n Anual</text></g><!--link Certificado_Emitido to *end*--><g class="link" data-entity-1="ent0004" data-entity-2="ent0025" data-link-type="dependency" data-source-line="26" id="lnk26"><path d="M589.921,754.9611 C589.8242,755.026 589.7268,755.0913 589.6287,755.157 C588.0591,756.2074 586.3144,757.3509 584.435,758.5456 C576.9175,763.3244 567.245,768.9219 558,772.6569 C530.85,783.6269 513.34,766.3169 494,788.2969 C479.09,805.2469 480.3373,828.0596 482.8873,843.2596" fill="none" id="Certificado_Emitido-to-*end*" style="stroke:#181818;stroke-width:1;"/><polygon fill="#181818" points="483.88,849.1769,486.3358,839.6391,483.0527,844.2458,478.4461,840.9627,483.88,849.1769" style="stroke:#181818;stroke-width:1;"/><text fill="#000000" font-family="sans-serif" font-size="13" lengthAdjust="spacing" textLength="110.2842" x="495" y="801.3638">Archivo Hist&#243;rico</text></g><?plantuml-src XLBBIaCn4DtdAsQfGb5mruLG-b0tfHJfHkGo96CxS6zIStEBLFenBbrqrK-uF-OaxQrzWLdaCOzpJcOcSCW9kgnp1uPWmWRZcIDqoGT-PusQwus5b_f7MtafzNhp1gtM0_HjDl9EK-cWtRWTiEoCSfHpqYbLgJ9WeCFuBmMo6g0nQJSLugo7mPN9TMnAKHFCnQ3PsMpeV8615oZ40xRYM284LoJfPW-IjYttnUIjYaCbdIsMDIuRevtkSE8wywJuGKKUCqDRcwWH7kT1-teTOZ4C1T81ZVi7fqSsU7S8rAsAkJJ6Dc8Jm4gjb3hXFEl4c3ug9azocQFVTUzMNco3q3XrIXOHziqMNVs20vi8zKYM6eHE9GMkl-LR2AFUe6dgfSJZxavuAeIKRBjxielYJovSDY6hkU0eBSvHw_uEJBt64guwkO3ZTSgy59s4ewaYUPm4qZE4nK40vXhj4Wt6kkqZpoesh4YcuVblOgLB5URgqjzYSlnP6pfUptZXu8dBK6-yjFiN?></g></svg>