<svg xmlns="http://www.w3.org/2000/svg" xmlns:xlink="http://www.w3.org/1999/xlink" contentStyleType="text/css" data-diagram-type="SEQUENCE" height="470px" preserveAspectRatio="none" style="width:848px;height:470px;background:#FFFFFF;" version="1.1" viewBox="0 0 848 470" width="848px" zoomAndPan="magnify"><?plantuml 1.2026.3beta6?><defs/><g><g class="title" data-source-line="1"><text fill="#000000" font-family="sans-serif" font-size="14" font-weight="700" lengthAdjust="spacing" textLength="358.5313" x="241.585" y="27.9951">3.2.1. Realizaci&#243;n del CU: Realizar Inspecci&#243;n</text></g><g><title>InspeccionController</title><rect fill="#FFFFFF" height="199.6016" style="stroke:#181818;stroke-width:1;" width="10" x="464.2871" y="178.8594"/></g><g><title>Motor de Reglas</title><rect fill="#FFFFFF" height="29.1328" style="stroke:#181818;stroke-width:1;" width="10" x="674.4238" y="207.9922"/></g><rect fill="none" height="119.3359" style="stroke:#000000;stroke-width:1.5;" width="642.4795" x="190.2217" y="252.125"/><g class="participant-lifeline" data-entity-uid="part1" data-qualified-name="T" data-source-line="3" id="part1-lifeline"><g><title>T.cnico de Campo</title><rect fill="#000000" fill-opacity="0.00000" height="269.8672" width="8" x="68.8662" y="118.5938"/><line style="stroke:#181818;stroke-width:0.5;stroke-dasharray:5,5;" x1="72" x2="72" y1="118.5938" y2="388.4609"/></g></g><g class="participant-lifeline" data-entity-uid="part2" data-qualified-name="V" data-source-line="4" id="part2-lifeline"><g><title>InspeccionView</title><rect fill="#000000" fill-opacity="0.00000" height="269.8672" width="8" x="253.2461" y="118.5938"/><line style="stroke:#181818;stroke-width:0.5;stroke-dasharray:5,5;" x1="257.2217" x2="257.2217" y1="118.5938" y2="388.4609"/></g></g><g class="participant-lifeline" data-entity-uid="part3" data-qualified-name="C" data-source-line="5" id="part3-lifeline"><g><title>InspeccionController</title><rect fill="#000000" fill-opacity="0.00000" height="269.8672" width="8" x="465.2871" y="118.5938"/><line style="stroke:#181818;stroke-width:0.5;stroke-dasharray:5,5;" x1="468.4414" x2="468.4414" y1="118.5938" y2="388.4609"/></g></g><g class="participant-lifeline" data-entity-uid="part4" data-qualified-name="M" data-source-line="6" id="part4-lifeline"><g><title>Motor de Reglas</title><rect fill="#000000" fill-opacity="0.00000" height="269.8672" width="8" x="675.4238" y="118.5938"/><line style="stroke:#181818;stroke-width:0.5;stroke-dasharray:5,5;" x1="678.501" x2="678.501" y1="118.5938" y2="388.4609"/></g></g><g class="participant-lifeline" data-entity-uid="part5" data-qualified-name="DB" data-source-line="7" id="part5-lifeline"><g><title>MongoDB</title><rect fill="#000000" fill-opacity="0.00000" height="269.8672" width="8" x="782.0239" y="118.5938"/><line style="stroke:#181818;stroke-width:0.5;stroke-dasharray:5,5;" x1="785.3467" x2="785.3467" y1="118.5938" y2="388.4609"/></g></g><g class="participant participant-head" data-entity-uid="part1" data-qualified-name="T" data-source-line="3" id="part1-head"><text fill="#000000" font-family="sans-serif" font-size="14" lengthAdjust="spacing" textLength="129.7324" x="5" y="115.292">T&#233;cnico de Campo</text><ellipse cx="72.8662" cy="50.7969" fill="#E2E2F0" rx="8" ry="8" style="stroke:#181818;stroke-width:0.5;"/><path d="M72.8662,58.7969 L72.8662,85.7969 M59.8662,66.7969 L85.8662,66.7969 M72.8662,85.7969 L59.8662,100.7969 M72.8662,85.7969 L85.8662,100.7969" fill="none" style="stroke:#181818;stroke-width:0.5;"/></g><g class="participant participant-tail" data-entity-uid="part1" data-qualified-name="T" data-source-line="3" id="part1-tail"><text fill="#000000" font-family="sans-serif" font-size="14" lengthAdjust="spacing" textLength="129.7324" x="5" y="400.4561">T&#233;cnico de Campo</text><ellipse cx="72.8662" cy="412.2578" fill="#E2E2F0" rx="8" ry="8" style="stroke:#181818;stroke-width:0.5;"/><path d="M72.8662,420.2578 L72.8662,447.2578 M59.8662,428.2578 L85.8662,428.2578 M72.8662,447.2578 L59.8662,462.2578 M72.8662,447.2578 L85.8662,462.2578" fill="none" style="stroke:#181818;stroke-width:0.5;"/></g><g class="participant participant-head" data-entity-uid="part2" data-qualified-name="V" data-source-line="4" id="part2-head"><text fill="#000000" font-family="sans-serif" font-size="14" lengthAdjust="spacing" textLength="108.0488" x="200.2217" y="115.292">InspeccionView</text><path d="M236.7461,74.2969 L236.7461,98.2969 M236.7461,86.2969 L253.7461,86.2969" fill="none" style="stroke:#181818;stroke-width:0.5;"/><ellipse cx="265.7461" cy="86.2969" fill="#E2E2F0" rx="12" ry="12" style="stroke:#181818;stroke-width:0.5;"/></g><g class="participant participant-tail" data-entity-uid="part2" data-qualified-name="V" data-source-line="4" id="part2-tail"><text fill="#000000" font-family="sans-serif" font-size="14" lengthAdjust="spacing" textLength="108.0488" x="200.2217" y="400.4561">InspeccionView</text><path d="M236.7461,407.7578 L236.7461,431.7578 M236.7461,419.7578 L253.7461,419.7578" fill="none" style="stroke:#181818;stroke-width:0.5;"/><ellipse cx="265.7461" cy="419.7578" fill="#E2E2F0" rx="12" ry="12" style="stroke:#181818;stroke-width:0.5;"/></g><g class="participant participant-head" data-entity-uid="part3" data-qualified-name="C" data-source-line="5" id="part3-head"><text fill="#000000" font-family="sans-serif" font-size="14" lengthAdjust="spacing" textLength="143.6914" x="394.4414" y="115.292">InspeccionController</text><ellipse cx="469.2871" cy="86.2969" fill="#E2E2F0" rx="12" ry="12" style="stroke:#181818;stroke-width:0.5;"/><polygon fill="#181818" points="465.2871,74.2969,471.2871,69.2969,469.2871,74.2969,471.2871,79.2969,465.2871,74.2969" style="stroke:#181818;stroke-width:1;"/></g><g class="participant participant-tail" data-entity-uid="part3" data-qualified-name="C" data-source-line="5" id="part3-tail"><text fill="#000000" font-family="sans-serif" font-size="14" lengthAdjust="spacing" textLength="143.6914" x="394.4414" y="400.4561">InspeccionController</text><ellipse cx="469.2871" cy="419.7578" fill="#E2E2F0" rx="12" ry="12" style="stroke:#181818;stroke-width:0.5;"/><polygon fill="#181818" points="465.2871,407.7578,471.2871,402.7578,469.2871,407.7578,471.2871,412.7578,465.2871,407.7578" style="stroke:#181818;stroke-width:1;"/></g><g class="participant participant-head" data-entity-uid="part4" data-qualified-name="M" data-source-line="6" id="part4-head"><text fill="#000000" font-family="sans-serif" font-size="14" lengthAdjust="spacing" textLength="113.8457" x="619.501" y="115.292">Motor de Reglas</text><ellipse cx="679.4238" cy="86.2969" fill="#E2E2F0" rx="12" ry="12" style="stroke:#181818;stroke-width:0.5;"/><line style="stroke:#181818;stroke-width:0.5;" x1="667.4238" x2="691.4238" y1="100.2969" y2="100.2969"/></g><g class="participant participant-tail" data-entity-uid="part4" data-qualified-name="M" data-source-line="6" id="part4-tail"><text fill="#000000" font-family="sans-serif" font-size="14" lengthAdjust="spacing" textLength="113.8457" x="619.501" y="400.4561">Motor de Reglas</text><ellipse cx="679.4238" cy="419.7578" fill="#E2E2F0" rx="12" ry="12" style="stroke:#181818;stroke-width:0.5;"/><line style="stroke:#181818;stroke-width:0.5;" x1="667.4238" x2="691.4238" y1="433.7578" y2="433.7578"/></g><g class="participant participant-head" data-entity-uid="part5" data-qualified-name="DB" data-source-line="7" id="part5-head"><text fill="#000000" font-family="sans-serif" font-size="14" lengthAdjust="spacing" textLength="67.3545" x="749.3467" y="115.292">MongoDB</text><path d="M768.0239,66.2969 C768.0239,56.2969 786.0239,56.2969 786.0239,56.2969 C786.0239,56.2969 804.0239,56.2969 804.0239,66.2969 L804.0239,92.2969 C804.0239,102.2969 786.0239,102.2969 786.0239,102.2969 C786.0239,102.2969 768.0239,102.2969 768.0239,92.2969 L768.0239,66.2969" fill="#E2E2F0" style="stroke:#181818;stroke-width:0.5;"/><path d="M768.0239,66.2969 C768.0239,76.2969 786.0239,76.2969 786.0239,76.2969 C786.0239,76.2969 804.0239,76.2969 804.0239,66.2969" fill="none" style="stroke:#181818;stroke-width:0.5;"/></g><g class="participant participant-tail" data-entity-uid="part5" data-qualified-name="DB" data-source-line="7" id="part5-tail"><text fill="#000000" font-family="sans-serif" font-size="14" lengthAdjust="spacing" textLength="67.3545" x="749.3467" y="400.4561">MongoDB</text><path d="M768.0239,413.7578 C768.0239,403.7578 786.0239,403.7578 786.0239,403.7578 C786.0239,403.7578 804.0239,403.7578 804.0239,413.7578 L804.0239,439.7578 C804.0239,449.7578 786.0239,449.7578 786.0239,449.7578 C786.0239,449.7578 768.0239,449.7578 768.0239,439.7578 L768.0239,413.7578" fill="#E2E2F0" style="stroke:#181818;stroke-width:0.5;"/><path d="M768.0239,413.7578 C768.0239,423.7578 786.0239,423.7578 786.0239,423.7578 C786.0239,423.7578 804.0239,423.7578 804.0239,413.7578" fill="none" style="stroke:#181818;stroke-width:0.5;"/></g><g><title>InspeccionController</title><rect fill="#FFFFFF" height="199.6016" style="stroke:#181818;stroke-width:1;" width="10" x="464.2871" y="178.8594"/></g><g><title>Motor de Reglas</title><rect fill="#FFFFFF" height="29.1328" style="stroke:#181818;stroke-width:1;" width="10" x="674.4238" y="207.9922"/></g><g class="message" data-entity-1="part1" data-entity-2="part2" data-source-line="9" id="msg1"><polygon fill="#181818" points="245.2461,145.7266,255.2461,149.7266,245.2461,153.7266,249.2461,149.7266" style="stroke:#181818;stroke-width:1;"/><line style="stroke:#181818;stroke-width:1;" x1="72.8662" x2="251.2461" y1="149.7266" y2="149.7266"/><text fill="#000000" font-family="sans-serif" font-size="13" lengthAdjust="spacing" textLength="160.3799" x="79.8662" y="144.6606">Introduce datos t&#233;cnicos</text></g><g class="message" data-entity-1="part2" data-entity-2="part3" data-source-line="10" id="msg2"><polygon fill="#181818" points="452.2871,174.8594,462.2871,178.8594,452.2871,182.8594,456.2871,178.8594" style="stroke:#181818;stroke-width:1;"/><line style="stroke:#181818;stroke-width:1;" x1="257.2461" x2="458.2871" y1="178.8594" y2="178.8594"/><text fill="#000000" font-family="sans-serif" font-size="13" lengthAdjust="spacing" textLength="159.8276" x="264.2461" y="173.7935">validarInspeccion(datos)</text></g><g class="message" data-entity-1="part3" data-entity-2="part4" data-source-line="12" id="msg3"><polygon fill="#181818" points="662.4238,203.9922,672.4238,207.9922,662.4238,211.9922,666.4238,207.9922" style="stroke:#181818;stroke-width:1;"/><line style="stroke:#181818;stroke-width:1;" x1="474.2871" x2="668.4238" y1="207.9922" y2="207.9922"/><text fill="#000000" font-family="sans-serif" font-size="13" lengthAdjust="spacing" textLength="181.1367" x="481.2871" y="202.9263">contrastarNormativa(datos)</text></g><g class="message" data-entity-1="part4" data-entity-2="part3" data-source-line="14" id="msg4"><polygon fill="#181818" points="485.2871,233.125,475.2871,237.125,485.2871,241.125,481.2871,237.125" style="stroke:#181818;stroke-width:1;"/><line style="stroke:#181818;stroke-width:1;stroke-dasharray:2,2;" x1="479.2871" x2="678.4238" y1="237.125" y2="237.125"/><text fill="#000000" font-family="sans-serif" font-size="13" lengthAdjust="spacing" textLength="165.7817" x="491.2871" y="232.0591">Resultado (Apto/No Apto)</text></g><path d="M190.2217,252.125 L254.6646,252.125 L254.6646,259.2578 L244.6646,269.2578 L190.2217,269.2578 L190.2217,252.125" fill="#EEEEEE" style="stroke:#000000;stroke-width:1.5;"/><rect fill="none" height="119.3359" style="stroke:#000000;stroke-width:1.5;" width="642.4795" x="190.2217" y="252.125"/><text fill="#000000" font-family="sans-serif" font-size="13" font-weight="700" lengthAdjust="spacing" textLength="19.4429" x="205.2217" y="265.1919">alt</text><text fill="#000000" font-family="sans-serif" font-size="11" font-weight="700" lengthAdjust="spacing" textLength="72.6172" x="269.6646" y="264.3354">[Si es Apto]</text><g class="message" data-entity-1="part3" data-entity-2="part5" data-source-line="18" id="msg5"><polygon fill="#181818" points="774.0239,286.3906,784.0239,290.3906,774.0239,294.3906,778.0239,290.3906" style="stroke:#181818;stroke-width:1;"/><line style="stroke:#181818;stroke-width:1;" x1="474.2871" x2="780.0239" y1="290.3906" y2="290.3906"/><text fill="#000000" font-family="sans-serif" font-size="13" lengthAdjust="spacing" textLength="130.7046" x="481.2871" y="285.3247">guardarInspeccion()</text></g><g class="message" data-entity-1="part3" data-entity-2="part2" data-source-line="19" id="msg6"><polygon fill="#181818" points="268.2461,315.5234,258.2461,319.5234,268.2461,323.5234,264.2461,319.5234" style="stroke:#181818;stroke-width:1;"/><line style="stroke:#181818;stroke-width:1;" x1="262.2461" x2="463.2871" y1="319.5234" y2="319.5234"/><text fill="#000000" font-family="sans-serif" font-size="13" lengthAdjust="spacing" textLength="147.6719" x="274.2461" y="314.4575">mostrarConfirmaci&#243;n()</text></g><line style="stroke:#000000;stroke-width:1;stroke-dasharray:2,2;" x1="190.2217" x2="832.7012" y1="328.5234" y2="328.5234"/><text fill="#000000" font-family="sans-serif" font-size="11" font-weight="700" lengthAdjust="spacing" textLength="93.21" x="195.2217" y="338.7339">[Si es No Apto]</text><g class="message" data-entity-1="part3" data-entity-2="part2" data-source-line="21" id="msg7"><polygon fill="#181818" points="268.2461,359.4609,258.2461,363.4609,268.2461,367.4609,264.2461,363.4609" style="stroke:#181818;stroke-width:1;"/><line style="stroke:#181818;stroke-width:1;" x1="262.2461" x2="463.2871" y1="363.4609" y2="363.4609"/><text fill="#000000" font-family="sans-serif" font-size="13" lengthAdjust="spacing" textLength="183.041" x="274.2461" y="358.395">mostrarErroresNormativos()</text></g><?plantuml-src RP6nRa8n34LtVuN510DKRJU6IYLqwF0OA7sxoNDHf12Z98-g_QFE_GH-h4u0GTLcYUHxV7sTP9Szu_taRd8xmIMJTvzatU4xOCSUpUlqN8pu7DAERHK1o6Q9E5WTlcnmLfH6GzkT390Ihc0jVUWeVk3Wt2MXTVnUvHQiX1p5NwlcMF8SAsE0GtPP3HefazH_oHjFgQeDT9HfJOcB7ZOodzNwV0Qmml43jZZLl6hOzPPHOKcOJraJj0KnYknrDOrvIJ6iwAYiv_QKTIam1MuKhg4fPOeBYLigm1-yWGR79_CbfzvdwWI7ZxiiDml1Se-WuoiUo6TySSYfge1wwiZvJ3qsFSNV0KSNeYovbQIXehxUczDGzNUKOQzFStGzZVstxIb6YPpE-qWghQ6xJcX-0000?></g></svg>