<svg xmlns="http://www.w3.org/2000/svg" xmlns:xlink="http://www.w3.org/1999/xlink" contentStyleType="text/css" data-diagram-type="DESCRIPTION" height="464px" preserveAspectRatio="none" style="width:1403px;height:464px;background:#FFFFFF;" version="1.1" viewBox="0 0 1403 464" width="1403px" zoomAndPan="magnify"><?plantuml 1.2026.3beta6?><defs/><g><g class="title" data-source-line="1"><text fill="#000000" font-family="sans-serif" font-size="14" font-weight="700" lengthAdjust="spacing" textLength="393.4082" x="501.2959" y="22.9951">3.1.1. Estructura de Paquetes (Arquitectura MVC)</text></g><!--cluster UI (Capa de Vista)--><g class="cluster" data-qualified-name="UI .Capa de Vista." data-source-line="3" id="ent0002"><path d="M8.5,43.2969 L152.3096,43.2969 A3.75,3.75 0 0 1 154.8096,45.7969 L161.8096,65.5938 L382.5,65.5938 A2.5,2.5 0 0 1 385,68.0938 L385,273.0969 A2.5,2.5 0 0 1 382.5,275.5969 L8.5,275.5969 A2.5,2.5 0 0 1 6,273.0969 L6,45.7969 A2.5,2.5 0 0 1 8.5,43.2969" fill="none" style="stroke:#000000;stroke-width:1.5;"/><line style="stroke:#000000;stroke-width:1.5;" x1="6" x2="161.8096" y1="65.5938" y2="65.5938"/><text fill="#000000" font-family="sans-serif" font-size="14" font-weight="700" lengthAdjust="spacing" textLength="142.8096" x="10" y="58.292">UI (Capa de Vista)</text></g><!--cluster Controllers (Capa de Control)--><g class="cluster" data-qualified-name="Controllers .Capa de Control." data-source-line="9" id="ent0006"><path d="M411.5,43.2969 L643.9033,43.2969 A3.75,3.75 0 0 1 646.4033,45.7969 L653.4033,65.5938 L842.5,65.5938 A2.5,2.5 0 0 1 845,68.0938 L845,273.0969 A2.5,2.5 0 0 1 842.5,275.5969 L411.5,275.5969 A2.5,2.5 0 0 1 409,273.0969 L409,45.7969 A2.5,2.5 0 0 1 411.5,43.2969" fill="none" style="stroke:#000000;stroke-width:1.5;"/><line style="stroke:#000000;stroke-width:1.5;" x1="409" x2="653.4033" y1="65.5938" y2="65.5938"/><text fill="#000000" font-family="sans-serif" font-size="14" font-weight="700" lengthAdjust="spacing" textLength="231.4033" x="413" y="58.292">Controllers (Capa de Control)</text></g><!--cluster Domain (Capa de Modelo)--><g class="cluster" data-qualified-name="Domain .Capa de Modelo." data-source-line="15" id="ent0010"><path d="M955.5,43.2969 L1160.1494,43.2969 A3.75,3.75 0 0 1 1162.6494,45.7969 L1169.6494,65.5938 L1385.5,65.5938 A2.5,2.5 0 0 1 1388,68.0938 L1388,138.0969 A2.5,2.5 0 0 1 1385.5,140.5969 L955.5,140.5969 A2.5,2.5 0 0 1 953,138.0969 L953,45.7969 A2.5,2.5 0 0 1 955.5,43.2969" fill="none" style="stroke:#000000;stroke-width:1.5;"/><line style="stroke:#000000;stroke-width:1.5;" x1="953" x2="1169.6494" y1="65.5938" y2="65.5938"/><text fill="#000000" font-family="sans-serif" font-size="14" font-weight="700" lengthAdjust="spacing" textLength="203.6494" x="957" y="58.292">Domain (Capa de Modelo)</text></g><!--cluster Infrastructure--><g class="cluster" data-qualified-name="Infrastructure" data-source-line="20" id="ent0013"><path d="M787.5,336.4469 L899.3721,336.4469 A3.75,3.75 0 0 1 901.8721,338.9469 L908.8721,358.7438 L1228.5,358.7438 A2.5,2.5 0 0 1 1231,361.2438 L1231,447.2469 A2.5,2.5 0 0 1 1228.5,449.7469 L787.5,449.7469 A2.5,2.5 0 0 1 785,447.2469 L785,338.9469 A2.5,2.5 0 0 1 787.5,336.4469" fill="none" style="stroke:#000000;stroke-width:1.5;"/><line style="stroke:#000000;stroke-width:1.5;" x1="785" x2="908.8721" y1="358.7438" y2="358.7438"/><text fill="#000000" font-family="sans-serif" font-size="14" font-weight="700" lengthAdjust="spacing" textLength="110.8721" x="789" y="351.442">Infrastructure</text></g><!--entity TecnicoMainView--><g class="entity" data-qualified-name="UI .Capa de Vista..TecnicoMainView" data-source-line="4" id="ent0003"><rect fill="#F1F1F1" height="46.2969" rx="2.5" ry="2.5" style="stroke:#181818;stroke-width:0.5;" width="160.8389" x="21.58" y="78.2969"/><rect fill="#F1F1F1" height="10" style="stroke:#181818;stroke-width:0.5;" width="15" x="162.4189" y="83.2969"/><rect fill="#F1F1F1" height="2" style="stroke:#181818;stroke-width:0.5;" width="4" x="160.4189" y="85.2969"/><rect fill="#F1F1F1" height="2" style="stroke:#181818;stroke-width:0.5;" width="4" x="160.4189" y="89.2969"/><text fill="#000000" font-family="sans-serif" font-size="14" lengthAdjust="spacing" textLength="120.8389" x="36.58" y="111.292">TecnicoMainView</text></g><!--entity AdminMainView--><g class="entity" data-qualified-name="UI .Capa de Vista..AdminMainView" data-source-line="5" id="ent0004"><rect fill="#F1F1F1" height="46.2969" rx="2.5" ry="2.5" style="stroke:#181818;stroke-width:0.5;" width="151.8154" x="217.09" y="78.2969"/><rect fill="#F1F1F1" height="10" style="stroke:#181818;stroke-width:0.5;" width="15" x="348.9054" y="83.2969"/><rect fill="#F1F1F1" height="2" style="stroke:#181818;stroke-width:0.5;" width="4" x="346.9054" y="85.2969"/><rect fill="#F1F1F1" height="2" style="stroke:#181818;stroke-width:0.5;" width="4" x="346.9054" y="89.2969"/><text fill="#000000" font-family="sans-serif" font-size="14" lengthAdjust="spacing" textLength="111.8154" x="232.09" y="111.292">AdminMainView</text></g><!--entity Vistas Primitivas--><g class="entity" data-qualified-name="UI .Capa de Vista..Vistas Primitivas" data-source-line="6" id="ent0005"><rect fill="#F1F1F1" height="46.2969" rx="2.5" ry="2.5" style="stroke:#181818;stroke-width:0.5;" width="155.7256" x="24.14" y="213.2969"/><rect fill="#F1F1F1" height="10" style="stroke:#181818;stroke-width:0.5;" width="15" x="159.8656" y="218.2969"/><rect fill="#F1F1F1" height="2" style="stroke:#181818;stroke-width:0.5;" width="4" x="157.8656" y="220.2969"/><rect fill="#F1F1F1" height="2" style="stroke:#181818;stroke-width:0.5;" width="4" x="157.8656" y="224.2969"/><text fill="#000000" font-family="sans-serif" font-size="14" lengthAdjust="spacing" textLength="115.7256" x="39.14" y="246.292">Vistas Primitivas</text></g><!--entity InspeccionController--><g class="entity" data-qualified-name="Controllers .Capa de Control..InspeccionController" data-source-line="10" id="ent0007"><rect fill="#F1F1F1" height="46.2969" rx="2.5" ry="2.5" style="stroke:#181818;stroke-width:0.5;" width="183.6914" x="425.15" y="78.2969"/><rect fill="#F1F1F1" height="10" style="stroke:#181818;stroke-width:0.5;" width="15" x="588.8414" y="83.2969"/><rect fill="#F1F1F1" height="2" style="stroke:#181818;stroke-width:0.5;" width="4" x="586.8414" y="85.2969"/><rect fill="#F1F1F1" height="2" style="stroke:#181818;stroke-width:0.5;" width="4" x="586.8414" y="89.2969"/><text fill="#000000" font-family="sans-serif" font-size="14" lengthAdjust="spacing" textLength="143.6914" x="440.15" y="111.292">InspeccionController</text></g><!--entity CertificadoController--><g class="entity" data-qualified-name="Controllers .Capa de Control..CertificadoController" data-source-line="11" id="ent0008"><rect fill="#F1F1F1" height="46.2969" rx="2.5" ry="2.5" style="stroke:#181818;stroke-width:0.5;" width="185.2432" x="643.38" y="78.2969"/><rect fill="#F1F1F1" height="10" style="stroke:#181818;stroke-width:0.5;" width="15" x="808.6232" y="83.2969"/><rect fill="#F1F1F1" height="2" style="stroke:#181818;stroke-width:0.5;" width="4" x="806.6232" y="85.2969"/><rect fill="#F1F1F1" height="2" style="stroke:#181818;stroke-width:0.5;" width="4" x="806.6232" y="89.2969"/><text fill="#000000" font-family="sans-serif" font-size="14" lengthAdjust="spacing" textLength="145.2432" x="658.38" y="111.292">CertificadoController</text></g><!--entity InventarioController--><g class="entity" data-qualified-name="Controllers .Capa de Control..InventarioController" data-source-line="12" id="ent0009"><rect fill="#F1F1F1" height="46.2969" rx="2.5" ry="2.5" style="stroke:#181818;stroke-width:0.5;" width="180.2256" x="426.89" y="213.2969"/><rect fill="#F1F1F1" height="10" style="stroke:#181818;stroke-width:0.5;" width="15" x="587.1156" y="218.2969"/><rect fill="#F1F1F1" height="2" style="stroke:#181818;stroke-width:0.5;" width="4" x="585.1156" y="220.2969"/><rect fill="#F1F1F1" height="2" style="stroke:#181818;stroke-width:0.5;" width="4" x="585.1156" y="224.2969"/><text fill="#000000" font-family="sans-serif" font-size="14" lengthAdjust="spacing" textLength="140.2256" x="441.89" y="246.292">InventarioController</text></g><!--entity Modelos (Activo, Cliente)--><g class="entity" data-qualified-name="Domain .Capa de Modelo..Modelos .Activo. Cliente." data-source-line="16" id="ent0011"><rect fill="#F1F1F1" height="46.2969" rx="2.5" ry="2.5" style="stroke:#181818;stroke-width:0.5;" width="214.8154" x="968.59" y="78.2969"/><rect fill="#F1F1F1" height="10" style="stroke:#181818;stroke-width:0.5;" width="15" x="1163.4054" y="83.2969"/><rect fill="#F1F1F1" height="2" style="stroke:#181818;stroke-width:0.5;" width="4" x="1161.4054" y="85.2969"/><rect fill="#F1F1F1" height="2" style="stroke:#181818;stroke-width:0.5;" width="4" x="1161.4054" y="89.2969"/><text fill="#000000" font-family="sans-serif" font-size="14" lengthAdjust="spacing" textLength="174.8154" x="983.59" y="111.292">Modelos (Activo, Cliente)</text></g><!--entity Motor de Reglas--><g class="entity" data-qualified-name="Domain .Capa de Modelo..Motor de Reglas" data-source-line="17" id="ent0012"><rect fill="#F1F1F1" height="46.2969" rx="2.5" ry="2.5" style="stroke:#181818;stroke-width:0.5;" width="153.8457" x="1218.08" y="78.2969"/><rect fill="#F1F1F1" height="10" style="stroke:#181818;stroke-width:0.5;" width="15" x="1351.9257" y="83.2969"/><rect fill="#F1F1F1" height="2" style="stroke:#181818;stroke-width:0.5;" width="4" x="1349.9257" y="85.2969"/><rect fill="#F1F1F1" height="2" style="stroke:#181818;stroke-width:0.5;" width="4" x="1349.9257" y="89.2969"/><text fill="#000000" font-family="sans-serif" font-size="14" lengthAdjust="spacing" textLength="113.8457" x="1233.08" y="111.292">Motor de Reglas</text></g><!--entity MongoDB_Persistence--><g class="entity" data-qualified-name="Infrastructure.MongoDB_Persistence" data-source-line="21" id="ent0014"><rect fill="#F1F1F1" height="46.2969" rx="2.5" ry="2.5" style="stroke:#181818;stroke-width:0.5;" width="194.9297" x="808.54" y="379.4469"/><rect fill="#F1F1F1" height="10" style="stroke:#181818;stroke-width:0.5;" width="15" x="983.4697" y="384.4469"/><rect fill="#F1F1F1" height="2" style="stroke:#181818;stroke-width:0.5;" width="4" x="981.4697" y="386.4469"/><rect fill="#F1F1F1" height="2" style="stroke:#181818;stroke-width:0.5;" width="4" x="981.4697" y="390.4469"/><text fill="#000000" font-family="sans-serif" font-size="14" lengthAdjust="spacing" textLength="154.9297" x="823.54" y="412.442">MongoDB_Persistence</text></g><!--entity Generador_PDF--><g class="entity" data-qualified-name="Infrastructure.Generador_PDF" data-source-line="22" id="ent0015"><rect fill="#F1F1F1" height="46.2969" rx="2.5" ry="2.5" style="stroke:#181818;stroke-width:0.5;" width="148.7666" x="1038.62" y="379.4469"/><rect fill="#F1F1F1" height="10" style="stroke:#181818;stroke-width:0.5;" width="15" x="1167.3866" y="384.4469"/><rect fill="#F1F1F1" height="2" style="stroke:#181818;stroke-width:0.5;" width="4" x="1165.3866" y="386.4469"/><rect fill="#F1F1F1" height="2" style="stroke:#181818;stroke-width:0.5;" width="4" x="1165.3866" y="390.4469"/><text fill="#000000" font-family="sans-serif" font-size="14" lengthAdjust="spacing" textLength="108.7666" x="1053.62" y="412.442">Generador_PDF</text></g><!--entity UI--><g class="entity" data-qualified-name="UI" data-source-line="25" id="ent0016"><ellipse cx="907" cy="101.4469" fill="#F1F1F1" rx="8" ry="8" style="stroke:#181818;stroke-width:0.5;"/><text fill="#000000" font-family="sans-serif" font-size="14" lengthAdjust="spacing" textLength="14.376" x="899.812" y="131.442">UI</text></g><!--entity Controllers--><g class="entity" data-qualified-name="Controllers" data-source-line="25" id="ent0017"><ellipse cx="907" cy="236.4469" fill="#F1F1F1" rx="8" ry="8" style="stroke:#181818;stroke-width:0.5;"/><text fill="#000000" font-family="sans-serif" font-size="14" lengthAdjust="spacing" textLength="76.4668" x="868.7666" y="266.442">Controllers</text></g><!--entity Domain--><g class="entity" data-qualified-name="Domain" data-source-line="26" id="ent0019"><ellipse cx="726" cy="402.5969" fill="#F1F1F1" rx="8" ry="8" style="stroke:#181818;stroke-width:0.5;"/><text fill="#000000" font-family="sans-serif" font-size="14" lengthAdjust="spacing" textLength="54.3252" x="698.8374" y="432.592">Domain</text></g><!--link UI to Controllers--><g class="link" data-entity-1="ent0016" data-entity-2="ent0017" data-link-type="dependency" data-source-line="25" id="lnk18"><path d="M907,110.3669 C907,134.0869 907,198.2969 907,221.7369" fill="none" id="UI-to-Controllers" style="stroke:#181818;stroke-width:1;stroke-dasharray:7,7;"/><polygon fill="#181818" points="907,227.7369,911,218.7369,907,222.7369,903,218.7369,907,227.7369" style="stroke:#181818;stroke-width:1;"/><text fill="#000000" font-family="sans-serif" font-size="13" lengthAdjust="spacing" textLength="103.8984" x="908" y="173.5138">Peticiones HTTP</text></g><!--link Controllers to Domain--><g class="link" data-entity-1="ent0017" data-entity-2="ent0019" data-link-type="dependency" data-source-line="26" id="lnk20"><path d="M898.22,244.0869 C886.25,253.1069 864.11,269.7169 845,283.5969 C822.08,300.2469 813.75,301.1669 793,320.4469 C767.03,344.5769 745.3993,373.8274 734.7693,388.9574" fill="none" id="Controllers-to-Domain" style="stroke:#181818;stroke-width:1;stroke-dasharray:7,7;"/><polygon fill="#181818" points="731.32,393.8669,739.7669,388.8022,734.1944,389.7757,733.2209,384.2032,731.32,393.8669" style="stroke:#181818;stroke-width:1;"/><text fill="#000000" font-family="sans-serif" font-size="13" lengthAdjust="spacing" textLength="119.3296" x="827" y="308.5138">L&#243;gica de Negocio</text></g><!--link Controllers to Infrastructure--><g class="link" data-entity-1="ent0017" data-entity-2="ent0013" data-link-type="dependency" data-source-line="27" id="lnk21"><path d="M915.82,236.9869 C955.58,235.4369 1119.82,234.5869 1203,320.4469 C1206.13,323.6781 1208.7952,327.3167 1211.0622,331.2166 C1211.6289,332.1916 1212.1708,333.1829 1212.6888,334.1883 C1212.9478,334.6909 1213.2009,335.1971 1213.4481,335.7065 C1213.5099,335.8339 1210.9833,352.8452 1211.0444,352.9729" fill="none" id="Controllers-to-Infrastructure" style="stroke:#181818;stroke-width:1;stroke-dasharray:7,7;"/><polygon fill="#181818" points="1213.6324,358.3861,1213.3592,348.541,1211.4757,353.8751,1206.1416,351.9917,1213.6324,358.3861" style="stroke:#181818;stroke-width:1;"/><text fill="#000000" font-family="sans-serif" font-size="13" lengthAdjust="spacing" textLength="152.7437" x="1192" y="308.5138">Persistencia y Servicios</text></g><?plantuml-src PL71IiD04BtdAuQUMf22UEj1g4dLW9MWCHSfPTbCms2wsyvEAY9-bP_WZxb94vAskwUTD_FUcxT2KYBSJA_zXOKJhhHKh217IDI-Ga47updlAn8y8iiid0J1JkaFLI2Ctc8OXshNJ6JaH4r6y1s0F-yfQaFQBXMPZF1pTQpEyosPirepw21XsfBGGRbLy3FG2AqHjcM9x7gnjjZBnSRjK6kofkzl-KDaeGrfbTiBB3O7DAAOJg2XV6IttcwllBGvbhONFhxhdBGtRwyWBCbJucJLuMAv7dp1eZpVBJORLbtkEE0qXOtkredVsOU3HcFBze06sI_2woIwRxZy5qodjp1CQGO92jLP-FzxJDCa6A9rTxlK39x-VWkVJEtl6GlhPovwJpqsv9qhKl05hyY7Mipz0m00?></g></svg>