<svg xmlns="http://www.w3.org/2000/svg" xmlns:xlink="http://www.w3.org/1999/xlink" contentStyleType="text/css" data-diagram-type="SEQUENCE" height="474px" preserveAspectRatio="none" style="width:939px;height:474px;background:#FFFFFF;" version="1.1" viewBox="0 0 939 474" width="939px" zoomAndPan="magnify"><?plantuml 1.2026.3beta6?><defs/><g><g class="participant-lifeline" data-entity-uid="part1" data-qualified-name="T" data-source-line="2" id="part1-lifeline"><g><title>T.cnico de Campo</title><rect fill="#000000" fill-opacity="0.00000" height="311.3281" width="8" x="68.8662" y="81.2969"/><line style="stroke:#181818;stroke-width:0.5;stroke-dasharray:5,5;" x1="72" x2="72" y1="81.2969" y2="392.625"/></g></g><g class="participant-lifeline" data-entity-uid="part2" data-qualified-name="UI" data-source-line="3" id="part2-lifeline"><g><title>Interfaz .SPA.</title><rect fill="#000000" fill-opacity="0.00000" height="311.3281" width="8" x="279.0303" y="81.2969"/><line style="stroke:#181818;stroke-width:0.5;stroke-dasharray:5,5;" x1="282.0317" x2="282.0317" y1="81.2969" y2="392.625"/></g></g><g class="participant-lifeline" data-entity-uid="part3" data-qualified-name="C" data-source-line="4" id="part3-lifeline"><g><title>Controlador Inspecci.n</title><rect fill="#000000" fill-opacity="0.00000" height="311.3281" width="8" x="557.9458" y="81.2969"/><line style="stroke:#181818;stroke-width:0.5;stroke-dasharray:5,5;" x1="561.1108" x2="561.1108" y1="81.2969" y2="392.625"/></g></g><g class="participant-lifeline" data-entity-uid="part4" data-qualified-name="Engine" data-source-line="5" id="part4-lifeline"><g><title>Motor de Reglas</title><rect fill="#000000" fill-opacity="0.00000" height="311.3281" width="8" x="747.7275" y="81.2969"/><line style="stroke:#181818;stroke-width:0.5;stroke-dasharray:5,5;" x1="750.8047" x2="750.8047" y1="81.2969" y2="392.625"/></g></g><g class="participant-lifeline" data-entity-uid="part5" data-qualified-name="DB" data-source-line="6" id="part5-lifeline"><g><title>Base de Datos</title><rect fill="#000000" fill-opacity="0.00000" height="311.3281" width="8" x="871.25" y="81.2969"/><line style="stroke:#181818;stroke-width:0.5;stroke-dasharray:5,5;" x1="874.6504" x2="874.6504" y1="81.2969" y2="392.625"/></g></g><g class="participant participant-head" data-entity-uid="part1" data-qualified-name="T" data-source-line="2" id="part1-head"><text fill="#000000" font-family="sans-serif" font-size="14" lengthAdjust="spacing" textLength="129.7324" x="5" y="77.9951">T&#233;cnico de Campo</text><ellipse cx="72.8662" cy="13.5" fill="#E3E3E3" rx="8" ry="8" style="stroke:#181818;stroke-width:0.5;"/><path d="M72.8662,21.5 L72.8662,48.5 M59.8662,29.5 L85.8662,29.5 M72.8662,48.5 L59.8662,63.5 M72.8662,48.5 L85.8662,63.5" fill="none" style="stroke:#181818;stroke-width:0.5;"/></g><g class="participant participant-tail" data-entity-uid="part1" data-qualified-name="T" data-source-line="2" id="part1-tail"><text fill="#000000" font-family="sans-serif" font-size="14" lengthAdjust="spacing" textLength="129.7324" x="5" y="404.6201">T&#233;cnico de Campo</text><ellipse cx="72.8662" cy="416.4219" fill="#E3E3E3" rx="8" ry="8" style="stroke:#181818;stroke-width:0.5;"/><path d="M72.8662,424.4219 L72.8662,451.4219 M59.8662,432.4219 L85.8662,432.4219 M72.8662,451.4219 L59.8662,466.4219 M72.8662,451.4219 L85.8662,466.4219" fill="none" style="stroke:#181818;stroke-width:0.5;"/></g><g class="participant participant-head" data-entity-uid="part2" data-qualified-name="UI" data-source-line="3" id="part2-head"><text fill="#000000" font-family="sans-serif" font-size="14" lengthAdjust="spacing" textLength="95.9971" x="232.0317" y="77.9951">Interfaz (SPA)</text><path d="M262.5303,37 L262.5303,61 M262.5303,49 L279.5303,49" fill="none" style="stroke:#181818;stroke-width:0.5;"/><ellipse cx="291.5303" cy="49" fill="#E3E3E3" rx="12" ry="12" style="stroke:#181818;stroke-width:0.5;"/></g><g class="participant participant-tail" data-entity-uid="part2" data-qualified-name="UI" data-source-line="3" id="part2-tail"><text fill="#000000" font-family="sans-serif" font-size="14" lengthAdjust="spacing" textLength="95.9971" x="232.0317" y="404.6201">Interfaz (SPA)</text><path d="M262.5303,411.9219 L262.5303,435.9219 M262.5303,423.9219 L279.5303,423.9219" fill="none" style="stroke:#181818;stroke-width:0.5;"/><ellipse cx="291.5303" cy="423.9219" fill="#E3E3E3" rx="12" ry="12" style="stroke:#181818;stroke-width:0.5;"/></g><g class="participant participant-head" data-entity-uid="part3" data-qualified-name="C" data-source-line="4" id="part3-head"><text fill="#000000" font-family="sans-serif" font-size="14" lengthAdjust="spacing" textLength="161.6699" x="478.1108" y="77.9951">Controlador Inspecci&#243;n</text><ellipse cx="561.9458" cy="49" fill="#E3E3E3" rx="12" ry="12" style="stroke:#181818;stroke-width:0.5;"/><polygon fill="#181818" points="557.9458,37,563.9458,32,561.9458,37,563.9458,42,557.9458,37" style="stroke:#181818;stroke-width:1;"/></g><g class="participant participant-tail" data-entity-uid="part3" data-qualified-name="C" data-source-line="4" id="part3-tail"><text fill="#000000" font-family="sans-serif" font-size="14" lengthAdjust="spacing" textLength="161.6699" x="478.1108" y="404.6201">Controlador Inspecci&#243;n</text><ellipse cx="561.9458" cy="423.9219" fill="#E3E3E3" rx="12" ry="12" style="stroke:#181818;stroke-width:0.5;"/><polygon fill="#181818" points="557.9458,411.9219,563.9458,406.9219,561.9458,411.9219,563.9458,416.9219,557.9458,411.9219" style="stroke:#181818;stroke-width:1;"/></g><g class="participant participant-head" data-entity-uid="part4" data-qualified-name="Engine" data-source-line="5" id="part4-head"><text fill="#000000" font-family="sans-serif" font-size="14" lengthAdjust="spacing" textLength="113.8457" x="691.8047" y="77.9951">Motor de Reglas</text><ellipse cx="751.7275" cy="49" fill="#E3E3E3" rx="12" ry="12" style="stroke:#181818;stroke-width:0.5;"/><line style="stroke:#181818;stroke-width:0.5;" x1="739.7275" x2="763.7275" y1="63" y2="63"/></g><g class="participant participant-tail" data-entity-uid="part4" data-qualified-name="Engine" data-source-line="5" id="part4-tail"><text fill="#000000" font-family="sans-serif" font-size="14" lengthAdjust="spacing" textLength="113.8457" x="691.8047" y="404.6201">Motor de Reglas</text><ellipse cx="751.7275" cy="423.9219" fill="#E3E3E3" rx="12" ry="12" style="stroke:#181818;stroke-width:0.5;"/><line style="stroke:#181818;stroke-width:0.5;" x1="739.7275" x2="763.7275" y1="437.9219" y2="437.9219"/></g><g class="participant participant-head" data-entity-uid="part5" data-qualified-name="DB" data-source-line="6" id="part5-head"><text fill="#000000" font-family="sans-serif" font-size="14" lengthAdjust="spacing" textLength="101.1992" x="821.6504" y="77.9951">Base de Datos</text><path d="M857.25,29 C857.25,19 875.25,19 875.25,19 C875.25,19 893.25,19 893.25,29 L893.25,55 C893.25,65 875.25,65 875.25,65 C875.25,65 857.25,65 857.25,55 L857.25,29" fill="#E3E3E3" style="stroke:#181818;stroke-width:0.5;"/><path d="M857.25,29 C857.25,39 875.25,39 875.25,39 C875.25,39 893.25,39 893.25,29" fill="none" style="stroke:#181818;stroke-width:0.5;"/></g><g class="participant participant-tail" data-entity-uid="part5" data-qualified-name="DB" data-source-line="6" id="part5-tail"><text fill="#000000" font-family="sans-serif" font-size="14" lengthAdjust="spacing" textLength="101.1992" x="821.6504" y="404.6201">Base de Datos</text><path d="M857.25,417.9219 C857.25,407.9219 875.25,407.9219 875.25,407.9219 C875.25,407.9219 893.25,407.9219 893.25,417.9219 L893.25,443.9219 C893.25,453.9219 875.25,453.9219 875.25,453.9219 C875.25,453.9219 857.25,453.9219 857.25,443.9219 L857.25,417.9219" fill="#E3E3E3" style="stroke:#181818;stroke-width:0.5;"/><path d="M857.25,417.9219 C857.25,427.9219 875.25,427.9219 875.25,427.9219 C875.25,427.9219 893.25,427.9219 893.25,417.9219" fill="none" style="stroke:#181818;stroke-width:0.5;"/></g><g class="message" data-entity-1="part1" data-entity-2="part2" data-source-line="8" id="msg1"><polygon fill="#181818" points="271.0303,108.4297,281.0303,112.4297,271.0303,116.4297,275.0303,112.4297" style="stroke:#181818;stroke-width:1;"/><line style="stroke:#181818;stroke-width:1;" x1="72.8662" x2="277.0303" y1="112.4297" y2="112.4297"/><text fill="#000000" font-family="sans-serif" font-size="13" lengthAdjust="spacing" textLength="119.7993" x="79.8662" y="107.3638">Seleccionar Activo</text></g><g class="message" data-entity-1="part2" data-entity-2="part3" data-source-line="9" id="msg2"><polygon fill="#181818" points="549.9458,137.5625,559.9458,141.5625,549.9458,145.5625,553.9458,141.5625" style="stroke:#181818;stroke-width:1;"/><line style="stroke:#181818;stroke-width:1;" x1="283.0303" x2="555.9458" y1="141.5625" y2="141.5625"/><text fill="#000000" font-family="sans-serif" font-size="13" lengthAdjust="spacing" textLength="192.2324" x="290.0303" y="136.4966">Solicitar Formulario Din&#225;mico</text></g><g class="message" data-entity-1="part3" data-entity-2="part5" data-source-line="10" id="msg3"><polygon fill="#181818" points="863.25,166.6953,873.25,170.6953,863.25,174.6953,867.25,170.6953" style="stroke:#181818;stroke-width:1;"/><line style="stroke:#181818;stroke-width:1;" x1="561.9458" x2="869.25" y1="170.6953" y2="170.6953"/><text fill="#000000" font-family="sans-serif" font-size="13" lengthAdjust="spacing" textLength="193.1846" x="568.9458" y="165.6294">Obtener Par&#225;metros T&#233;cnicos</text></g><g class="message" data-entity-1="part3" data-entity-2="part2" data-source-line="11" id="msg4"><polygon fill="#181818" points="294.0303,195.8281,284.0303,199.8281,294.0303,203.8281,290.0303,199.8281" style="stroke:#181818;stroke-width:1;"/><line style="stroke:#181818;stroke-width:1;stroke-dasharray:2,2;" x1="288.0303" x2="560.9458" y1="199.8281" y2="199.8281"/><text fill="#000000" font-family="sans-serif" font-size="13" lengthAdjust="spacing" textLength="123.9951" x="300.0303" y="194.7622">Mostrar Formulario</text></g><g class="message" data-entity-1="part1" data-entity-2="part2" data-source-line="12" id="msg5"><polygon fill="#181818" points="271.0303,224.9609,281.0303,228.9609,271.0303,232.9609,275.0303,228.9609" style="stroke:#181818;stroke-width:1;"/><line style="stroke:#181818;stroke-width:1;" x1="72.8662" x2="277.0303" y1="228.9609" y2="228.9609"/><text fill="#000000" font-family="sans-serif" font-size="13" lengthAdjust="spacing" textLength="186.1641" x="79.8662" y="223.895">Introducir Valores de Campo</text></g><g class="message" data-entity-1="part2" data-entity-2="part3" data-source-line="13" id="msg6"><polygon fill="#181818" points="549.9458,254.0938,559.9458,258.0938,549.9458,262.0938,553.9458,258.0938" style="stroke:#181818;stroke-width:1;"/><line style="stroke:#181818;stroke-width:1;" x1="283.0303" x2="555.9458" y1="258.0938" y2="258.0938"/><text fill="#000000" font-family="sans-serif" font-size="13" lengthAdjust="spacing" textLength="156.3301" x="290.0303" y="253.0278">Enviar Datos Inspecci&#243;n</text></g><g class="message" data-entity-1="part3" data-entity-2="part4" data-source-line="14" id="msg7"><polygon fill="#181818" points="739.7275,283.2266,749.7275,287.2266,739.7275,291.2266,743.7275,287.2266" style="stroke:#181818;stroke-width:1;"/><line style="stroke:#181818;stroke-width:1;" x1="561.9458" x2="745.7275" y1="287.2266" y2="287.2266"/><text fill="#000000" font-family="sans-serif" font-size="13" lengthAdjust="spacing" textLength="161.4336" x="568.9458" y="282.1606">Validar seg&#250;n Normativa</text></g><g class="message" data-entity-1="part4" data-entity-2="part3" data-source-line="15" id="msg8"><polygon fill="#181818" points="572.9458,312.3594,562.9458,316.3594,572.9458,320.3594,568.9458,316.3594" style="stroke:#181818;stroke-width:1;"/><line style="stroke:#181818;stroke-width:1;stroke-dasharray:2,2;" x1="566.9458" x2="750.7275" y1="316.3594" y2="316.3594"/><text fill="#000000" font-family="sans-serif" font-size="13" lengthAdjust="spacing" textLength="165.7817" x="578.9458" y="311.2935">Resultado (Apto/No Apto)</text></g><g class="message" data-entity-1="part3" data-entity-2="part5" data-source-line="16" id="msg9"><polygon fill="#181818" points="863.25,341.4922,873.25,345.4922,863.25,349.4922,867.25,345.4922" style="stroke:#181818;stroke-width:1;"/><line style="stroke:#181818;stroke-width:1;" x1="561.9458" x2="869.25" y1="345.4922" y2="345.4922"/><text fill="#000000" font-family="sans-serif" font-size="13" lengthAdjust="spacing" textLength="184.7104" x="568.9458" y="340.4263">Guardar Registro Inspecci&#243;n</text></g><g class="message" data-entity-1="part3" data-entity-2="part2" data-source-line="17" id="msg10"><polygon fill="#181818" points="294.0303,370.625,284.0303,374.625,294.0303,378.625,290.0303,374.625" style="stroke:#181818;stroke-width:1;"/><line style="stroke:#181818;stroke-width:1;stroke-dasharray:2,2;" x1="288.0303" x2="560.9458" y1="374.625" y2="374.625"/><text fill="#000000" font-family="sans-serif" font-size="13" lengthAdjust="spacing" textLength="254.9155" x="300.0303" y="369.5591">Mostrar Resultado y Opci&#243;n Certificado</text></g><?plantuml-src NL0zJyCm4DtzAqwPsg5YPq1gau8wz4DjORywHx58VD7PgLJ-3ICp6sl-6EUqGEbYMtvFxokyEj-WO0qrUxOlmZL1b9OCsiW2sRRxiDvPXf8WnxhX3330rkouzINA4RAPZoJF-0Q3pMeyxE77cR7iet05MNvwOAbgCnyQijPrdxxdvOPyT555vfpSr6DD-mf3Zqxztdao9KRSOI389kbKJe6HJvHYOimMHdVg2BUmeIgfiqU1iOtkm4R_5SqJo9MpBYfqprAt5OfZA9pltckjP_B4AoPANEuYUH9OeIX66bxxdbS8YVTZD-SGvP_UHPPPQbssrWayOSL2uNV1Yr1JVt2gq1UwNESKvpI0qbJ1wTWGQDzzULYe8MezD6V6w2otfj1MKQU6mRY9VBDWIFVmejr3YvAaT6UdyVdQzRhSd-GHbarFWvmakcTdzVSR?></g></svg>